solid OpenSCAD_Model
  facet normal -0 0 1
    outer loop
      vertex 0 50 15.5
      vertex 3 16.8 15.5
      vertex 3 50 15.5
    endloop
  endfacet
  facet normal 0 0 1
    outer loop
      vertex 0 0 15.5
      vertex 3 16.8 15.5
      vertex 0 50 15.5
    endloop
  endfacet
  facet normal 0 0 1
    outer loop
      vertex 3 16.8 15.5
      vertex 0 0 15.5
      vertex 3 3.84924 15.5
    endloop
  endfacet
  facet normal 0 0 1
    outer loop
      vertex 3 3.84924 15.5
      vertex 0 0 15.5
      vertex 3 0 15.5
    endloop
  endfacet
  facet normal -0 0 1
    outer loop
      vertex 12.5 26.3 15.5
      vertex 13.5 14.3492 15.5
      vertex 13.5 26.3 15.5
    endloop
  endfacet
  facet normal -0 0 1
    outer loop
      vertex 3 16.8 15.5
      vertex 13.5 14.3492 15.5
      vertex 12.5 26.3 15.5
    endloop
  endfacet
  facet normal 0 0 1
    outer loop
      vertex 13.5 14.3492 15.5
      vertex 3 16.8 15.5
      vertex 3 3.84924 15.5
    endloop
  endfacet
  facet normal 0 0 -1
    outer loop
      vertex 0 0 0
      vertex 3 3.84924 0
      vertex 3 0 0
    endloop
  endfacet
  facet normal -0 0 -1
    outer loop
      vertex 3 3.84924 0
      vertex 0 0 0
      vertex 3 16.8 0
    endloop
  endfacet
  facet normal 0 0 -1
    outer loop
      vertex 0 50 0
      vertex 3 16.8 0
      vertex 0 0 0
    endloop
  endfacet
  facet normal 0 0 -1
    outer loop
      vertex 3 16.8 0
      vertex 0 50 0
      vertex 3 50 0
    endloop
  endfacet
  facet normal 0 0 -1
    outer loop
      vertex 13.5 14.3492 0
      vertex 12.5 26.3 0
      vertex 13.5 26.3 0
    endloop
  endfacet
  facet normal 0 0 -1
    outer loop
      vertex 3 16.8 0
      vertex 13.5 14.3492 0
      vertex 3 3.84924 0
    endloop
  endfacet
  facet normal 0 0 -1
    outer loop
      vertex 13.5 14.3492 0
      vertex 3 16.8 0
      vertex 12.5 26.3 0
    endloop
  endfacet
  facet normal 1 -0 0
    outer loop
      vertex 3 16.8 15.5
      vertex 3 50 0
      vertex 3 50 15.5
    endloop
  endfacet
  facet normal 1 0 0
    outer loop
      vertex 3 50 0
      vertex 3 16.8 15.5
      vertex 3 16.8 0
    endloop
  endfacet
  facet normal 1 -0 0
    outer loop
      vertex 3 0 15.5
      vertex 3 3.84924 0
      vertex 3 3.84924 15.5
    endloop
  endfacet
  facet normal 1 0 0
    outer loop
      vertex 3 3.84924 0
      vertex 3 0 15.5
      vertex 3 0 0
    endloop
  endfacet
  facet normal 1 -0 0
    outer loop
      vertex 13.5 14.3492 15.5
      vertex 13.5 26.3 0
      vertex 13.5 26.3 15.5
    endloop
  endfacet
  facet normal 1 0 0
    outer loop
      vertex 13.5 26.3 0
      vertex 13.5 14.3492 15.5
      vertex 13.5 14.3492 0
    endloop
  endfacet
  facet normal 0 1 -0
    outer loop
      vertex 13.5 26.3 0
      vertex 12.5 26.3 15.5
      vertex 13.5 26.3 15.5
    endloop
  endfacet
  facet normal 0 1 0
    outer loop
      vertex 12.5 26.3 15.5
      vertex 13.5 26.3 0
      vertex 12.5 26.3 0
    endloop
  endfacet
  facet normal -0.707107 0.707107 0
    outer loop
      vertex 3 16.8 0
      vertex 12.5 26.3 15.5
      vertex 12.5 26.3 0
    endloop
  endfacet
  facet normal -0.707107 0.707107 0
    outer loop
      vertex 12.5 26.3 15.5
      vertex 3 16.8 0
      vertex 3 16.8 15.5
    endloop
  endfacet
  facet normal 0.707105 -0.707108 0
    outer loop
      vertex 3 3.84924 15.5
      vertex 13.5 14.3492 0
      vertex 13.5 14.3492 15.5
    endloop
  endfacet
  facet normal 0.707105 -0.707108 0
    outer loop
      vertex 13.5 14.3492 0
      vertex 3 3.84924 15.5
      vertex 3 3.84924 0
    endloop
  endfacet
  facet normal -1 0 0
    outer loop
      vertex 0 0 0
      vertex 0 50 15.5
      vertex 0 50 0
    endloop
  endfacet
  facet normal -1 -0 0
    outer loop
      vertex 0 50 15.5
      vertex 0 0 0
      vertex 0 0 15.5
    endloop
  endfacet
  facet normal 0 1 -0
    outer loop
      vertex 3 50 0
      vertex 0 50 15.5
      vertex 3 50 15.5
    endloop
  endfacet
  facet normal 0 1 0
    outer loop
      vertex 0 50 15.5
      vertex 3 50 0
      vertex 0 50 0
    endloop
  endfacet
  facet normal 0 -1 0
    outer loop
      vertex 0 0 0
      vertex 3 0 15.5
      vertex 0 0 15.5
    endloop
  endfacet
  facet normal 0 -1 -0
    outer loop
      vertex 3 0 15.5
      vertex 0 0 0
      vertex 3 0 0
    endloop
  endfacet
endsolid OpenSCAD_Model
