solid OpenSCAD_Model
  facet normal 1 -0 0
    outer loop
      vertex 13 14.1421 15
      vertex 13 25 0
      vertex 13 25 15
    endloop
  endfacet
  facet normal 1 0 0
    outer loop
      vertex 13 25 0
      vertex 13 14.1421 15
      vertex 13 14.1421 0
    endloop
  endfacet
  facet normal -0 0 1
    outer loop
      vertex 0 50 15
      vertex 3 16 15
      vertex 3 50 15
    endloop
  endfacet
  facet normal 0 0 1
    outer loop
      vertex 0 0 15
      vertex 3 16 15
      vertex 0 50 15
    endloop
  endfacet
  facet normal 0 0 1
    outer loop
      vertex 3 16 15
      vertex 0 0 15
      vertex 3 9 15
    endloop
  endfacet
  facet normal 0 0 1
    outer loop
      vertex 3 9 15
      vertex 0 0 15
      vertex 3 0 15
    endloop
  endfacet
  facet normal -0 0 1
    outer loop
      vertex 12 25 15
      vertex 13 14.1421 15
      vertex 13 25 15
    endloop
  endfacet
  facet normal -0 0 1
    outer loop
      vertex 3 16 15
      vertex 13 14.1421 15
      vertex 12 25 15
    endloop
  endfacet
  facet normal 0 0 1
    outer loop
      vertex 13 14.1421 15
      vertex 3 16 15
      vertex 8.85786 10 15
    endloop
  endfacet
  facet normal 0 0 1
    outer loop
      vertex 8.85786 10 15
      vertex 3 16 15
      vertex 4 10 15
    endloop
  endfacet
  facet normal 0 0 1
    outer loop
      vertex 4 10 15
      vertex 3 16 15
      vertex 3.89547 9.99452 15
    endloop
  endfacet
  facet normal 0 0 1
    outer loop
      vertex 3.89547 9.99452 15
      vertex 3 16 15
      vertex 3.79209 9.97815 15
    endloop
  endfacet
  facet normal 0 0 1
    outer loop
      vertex 3.79209 9.97815 15
      vertex 3 16 15
      vertex 3.69098 9.95106 15
    endloop
  endfacet
  facet normal 0 0 1
    outer loop
      vertex 3.69098 9.95106 15
      vertex 3 16 15
      vertex 3.59326 9.91354 15
    endloop
  endfacet
  facet normal 0 0 1
    outer loop
      vertex 3.59326 9.91354 15
      vertex 3 16 15
      vertex 3.5 9.86602 15
    endloop
  endfacet
  facet normal 0 0 1
    outer loop
      vertex 3.5 9.86602 15
      vertex 3 16 15
      vertex 3.41222 9.80902 15
    endloop
  endfacet
  facet normal 0 0 1
    outer loop
      vertex 3.41222 9.80902 15
      vertex 3 16 15
      vertex 3.33087 9.74314 15
    endloop
  endfacet
  facet normal 0 0 1
    outer loop
      vertex 3.33087 9.74314 15
      vertex 3 16 15
      vertex 3.25686 9.66913 15
    endloop
  endfacet
  facet normal 0 0 1
    outer loop
      vertex 3.25686 9.66913 15
      vertex 3 16 15
      vertex 3.19098 9.58778 15
    endloop
  endfacet
  facet normal 0 0 1
    outer loop
      vertex 3.19098 9.58778 15
      vertex 3 16 15
      vertex 3.13398 9.5 15
    endloop
  endfacet
  facet normal 0 0 1
    outer loop
      vertex 3 16 15
      vertex 3.08646 9.40674 15
      vertex 3.13398 9.5 15
    endloop
  endfacet
  facet normal 0 0 1
    outer loop
      vertex 3 16 15
      vertex 3.04894 9.30902 15
      vertex 3.08646 9.40674 15
    endloop
  endfacet
  facet normal 0 0 1
    outer loop
      vertex 3 16 15
      vertex 3.02185 9.20791 15
      vertex 3.04894 9.30902 15
    endloop
  endfacet
  facet normal 0 0 1
    outer loop
      vertex 3 16 15
      vertex 3.00548 9.10453 15
      vertex 3.02185 9.20791 15
    endloop
  endfacet
  facet normal 0 0 1
    outer loop
      vertex 3.00548 9.10453 15
      vertex 3 16 15
      vertex 3 9 15
    endloop
  endfacet
  facet normal 0 0 -1
    outer loop
      vertex 0 0 0
      vertex 3 9 0
      vertex 3 0 0
    endloop
  endfacet
  facet normal -0 0 -1
    outer loop
      vertex 3 9 0
      vertex 0 0 0
      vertex 3 16 0
    endloop
  endfacet
  facet normal 0 0 -1
    outer loop
      vertex 0 50 0
      vertex 3 16 0
      vertex 0 0 0
    endloop
  endfacet
  facet normal 0 0 -1
    outer loop
      vertex 3 16 0
      vertex 0 50 0
      vertex 3 50 0
    endloop
  endfacet
  facet normal 0 0 -1
    outer loop
      vertex 13 14.1421 0
      vertex 12 25 0
      vertex 13 25 0
    endloop
  endfacet
  facet normal 0 0 -1
    outer loop
      vertex 3 16 0
      vertex 13 14.1421 0
      vertex 8.85786 10 0
    endloop
  endfacet
  facet normal 0 0 -1
    outer loop
      vertex 3 16 0
      vertex 8.85786 10 0
      vertex 4 10 0
    endloop
  endfacet
  facet normal 0 0 -1
    outer loop
      vertex 3 16 0
      vertex 4 10 0
      vertex 3.89547 9.99452 0
    endloop
  endfacet
  facet normal 0 0 -1
    outer loop
      vertex 3 16 0
      vertex 3.89547 9.99452 0
      vertex 3.79209 9.97815 0
    endloop
  endfacet
  facet normal 0 0 -1
    outer loop
      vertex 3 16 0
      vertex 3.79209 9.97815 0
      vertex 3.69098 9.95106 0
    endloop
  endfacet
  facet normal 0 0 -1
    outer loop
      vertex 3 16 0
      vertex 3.69098 9.95106 0
      vertex 3.59326 9.91354 0
    endloop
  endfacet
  facet normal 0 0 -1
    outer loop
      vertex 3 16 0
      vertex 3.59326 9.91354 0
      vertex 3.5 9.86602 0
    endloop
  endfacet
  facet normal 0 0 -1
    outer loop
      vertex 3 16 0
      vertex 3.5 9.86602 0
      vertex 3.41222 9.80902 0
    endloop
  endfacet
  facet normal 0 0 -1
    outer loop
      vertex 3 16 0
      vertex 3.41222 9.80902 0
      vertex 3.33087 9.74314 0
    endloop
  endfacet
  facet normal 0 0 -1
    outer loop
      vertex 3 16 0
      vertex 3.33087 9.74314 0
      vertex 3.25686 9.66913 0
    endloop
  endfacet
  facet normal 0 0 -1
    outer loop
      vertex 3 16 0
      vertex 3.25686 9.66913 0
      vertex 3.19098 9.58778 0
    endloop
  endfacet
  facet normal 0 0 -1
    outer loop
      vertex 3 16 0
      vertex 3.19098 9.58778 0
      vertex 3.13398 9.5 0
    endloop
  endfacet
  facet normal 0 0 -1
    outer loop
      vertex 13 14.1421 0
      vertex 3 16 0
      vertex 12 25 0
    endloop
  endfacet
  facet normal 0 0 -1
    outer loop
      vertex 3.08646 9.40674 0
      vertex 3 16 0
      vertex 3.13398 9.5 0
    endloop
  endfacet
  facet normal 0 0 -1
    outer loop
      vertex 3.04894 9.30902 0
      vertex 3 16 0
      vertex 3.08646 9.40674 0
    endloop
  endfacet
  facet normal 0 0 -1
    outer loop
      vertex 3.02185 9.20791 0
      vertex 3 16 0
      vertex 3.04894 9.30902 0
    endloop
  endfacet
  facet normal 0 0 -1
    outer loop
      vertex 3.00548 9.10453 0
      vertex 3 16 0
      vertex 3.02185 9.20791 0
    endloop
  endfacet
  facet normal 0 0 -1
    outer loop
      vertex 3 16 0
      vertex 3.00548 9.10453 0
      vertex 3 9 0
    endloop
  endfacet
  facet normal 1 -0 0
    outer loop
      vertex 3 16 15
      vertex 3 50 0
      vertex 3 50 15
    endloop
  endfacet
  facet normal 1 0 0
    outer loop
      vertex 3 50 0
      vertex 3 16 15
      vertex 3 16 0
    endloop
  endfacet
  facet normal 1 -0 0
    outer loop
      vertex 3 0 15
      vertex 3 9 0
      vertex 3 9 15
    endloop
  endfacet
  facet normal 1 0 0
    outer loop
      vertex 3 9 0
      vertex 3 0 15
      vertex 3 0 0
    endloop
  endfacet
  facet normal 0 1 -0
    outer loop
      vertex 13 25 0
      vertex 12 25 15
      vertex 13 25 15
    endloop
  endfacet
  facet normal 0 1 0
    outer loop
      vertex 12 25 15
      vertex 13 25 0
      vertex 12 25 0
    endloop
  endfacet
  facet normal 0 -1 0
    outer loop
      vertex 4 10 0
      vertex 8.85786 10 15
      vertex 4 10 15
    endloop
  endfacet
  facet normal 0 -1 -0
    outer loop
      vertex 8.85786 10 15
      vertex 4 10 0
      vertex 8.85786 10 0
    endloop
  endfacet
  facet normal -0.707107 0.707107 0
    outer loop
      vertex 3 16 0
      vertex 12 25 15
      vertex 12 25 0
    endloop
  endfacet
  facet normal -0.707107 0.707107 0
    outer loop
      vertex 12 25 15
      vertex 3 16 0
      vertex 3 16 15
    endloop
  endfacet
  facet normal 0.707103 -0.70711 0
    outer loop
      vertex 8.85786 10 0
      vertex 13 14.1421 15
      vertex 8.85786 10 15
    endloop
  endfacet
  facet normal 0.707103 -0.70711 0
    outer loop
      vertex 13 14.1421 15
      vertex 8.85786 10 0
      vertex 13 14.1421 0
    endloop
  endfacet
  facet normal 0.987694 -0.156399 0
    outer loop
      vertex 3.00548 9.10453 15
      vertex 3.02185 9.20791 0
      vertex 3.02185 9.20791 15
    endloop
  endfacet
  facet normal 0.987694 -0.156399 0
    outer loop
      vertex 3.02185 9.20791 0
      vertex 3.00548 9.10453 15
      vertex 3.00548 9.10453 0
    endloop
  endfacet
  facet normal 0.156399 -0.987694 0
    outer loop
      vertex 3.79209 9.97815 0
      vertex 3.89547 9.99452 15
      vertex 3.79209 9.97815 15
    endloop
  endfacet
  facet normal 0.156399 -0.987694 0
    outer loop
      vertex 3.89547 9.99452 15
      vertex 3.79209 9.97815 0
      vertex 3.89547 9.99452 0
    endloop
  endfacet
  facet normal 0.0523532 -0.998629 0
    outer loop
      vertex 3.89547 9.99452 0
      vertex 4 10 15
      vertex 3.89547 9.99452 15
    endloop
  endfacet
  facet normal 0.0523532 -0.998629 0
    outer loop
      vertex 4 10 15
      vertex 3.89547 9.99452 0
      vertex 4 10 0
    endloop
  endfacet
  facet normal 0.258798 -0.965931 0
    outer loop
      vertex 3.69098 9.95106 0
      vertex 3.79209 9.97815 15
      vertex 3.69098 9.95106 15
    endloop
  endfacet
  facet normal 0.258798 -0.965931 0
    outer loop
      vertex 3.79209 9.97815 15
      vertex 3.69098 9.95106 0
      vertex 3.79209 9.97815 0
    endloop
  endfacet
  facet normal 0.707107 -0.707107 0
    outer loop
      vertex 3.25686 9.66913 15
      vertex 3.33087 9.74314 0
      vertex 3.33087 9.74314 15
    endloop
  endfacet
  facet normal 0.707107 -0.707107 0
    outer loop
      vertex 3.33087 9.74314 0
      vertex 3.25686 9.66913 15
      vertex 3.25686 9.66913 0
    endloop
  endfacet
  facet normal 0.933552 -0.358441 0
    outer loop
      vertex 3.04894 9.30902 15
      vertex 3.08646 9.40674 0
      vertex 3.08646 9.40674 15
    endloop
  endfacet
  facet normal 0.933552 -0.358441 0
    outer loop
      vertex 3.08646 9.40674 0
      vertex 3.04894 9.30902 15
      vertex 3.04894 9.30902 0
    endloop
  endfacet
  facet normal 0.777127 -0.629344 0
    outer loop
      vertex 3.19098 9.58778 15
      vertex 3.25686 9.66913 0
      vertex 3.25686 9.66913 15
    endloop
  endfacet
  facet normal 0.777127 -0.629344 0
    outer loop
      vertex 3.25686 9.66913 0
      vertex 3.19098 9.58778 15
      vertex 3.19098 9.58778 0
    endloop
  endfacet
  facet normal 0.544605 -0.838692 0
    outer loop
      vertex 3.41222 9.80902 0
      vertex 3.5 9.86602 15
      vertex 3.41222 9.80902 15
    endloop
  endfacet
  facet normal 0.544605 -0.838692 0
    outer loop
      vertex 3.5 9.86602 15
      vertex 3.41222 9.80902 0
      vertex 3.5 9.86602 0
    endloop
  endfacet
  facet normal 0.891 -0.454003 0
    outer loop
      vertex 3.08646 9.40674 15
      vertex 3.13398 9.5 0
      vertex 3.13398 9.5 15
    endloop
  endfacet
  facet normal 0.891 -0.454003 0
    outer loop
      vertex 3.13398 9.5 0
      vertex 3.08646 9.40674 15
      vertex 3.08646 9.40674 0
    endloop
  endfacet
  facet normal 0.965931 -0.258798 0
    outer loop
      vertex 3.02185 9.20791 15
      vertex 3.04894 9.30902 0
      vertex 3.04894 9.30902 15
    endloop
  endfacet
  facet normal 0.965931 -0.258798 0
    outer loop
      vertex 3.04894 9.30902 0
      vertex 3.02185 9.20791 15
      vertex 3.02185 9.20791 0
    endloop
  endfacet
  facet normal 0.629344 -0.777127 0
    outer loop
      vertex 3.33087 9.74314 0
      vertex 3.41222 9.80902 15
      vertex 3.33087 9.74314 15
    endloop
  endfacet
  facet normal 0.629344 -0.777127 0
    outer loop
      vertex 3.41222 9.80902 15
      vertex 3.33087 9.74314 0
      vertex 3.41222 9.80902 0
    endloop
  endfacet
  facet normal 0.838692 -0.544605 0
    outer loop
      vertex 3.13398 9.5 15
      vertex 3.19098 9.58778 0
      vertex 3.19098 9.58778 15
    endloop
  endfacet
  facet normal 0.838692 -0.544605 0
    outer loop
      vertex 3.19098 9.58778 0
      vertex 3.13398 9.5 15
      vertex 3.13398 9.5 0
    endloop
  endfacet
  facet normal 0.358441 -0.933552 0
    outer loop
      vertex 3.59326 9.91354 0
      vertex 3.69098 9.95106 15
      vertex 3.59326 9.91354 15
    endloop
  endfacet
  facet normal 0.358441 -0.933552 0
    outer loop
      vertex 3.69098 9.95106 15
      vertex 3.59326 9.91354 0
      vertex 3.69098 9.95106 0
    endloop
  endfacet
  facet normal 0.998629 -0.0523532 0
    outer loop
      vertex 3 9 15
      vertex 3.00548 9.10453 0
      vertex 3.00548 9.10453 15
    endloop
  endfacet
  facet normal 0.998629 -0.0523532 0
    outer loop
      vertex 3.00548 9.10453 0
      vertex 3 9 15
      vertex 3 9 0
    endloop
  endfacet
  facet normal 0.454003 -0.891 0
    outer loop
      vertex 3.5 9.86602 0
      vertex 3.59326 9.91354 15
      vertex 3.5 9.86602 15
    endloop
  endfacet
  facet normal 0.454003 -0.891 0
    outer loop
      vertex 3.59326 9.91354 15
      vertex 3.5 9.86602 0
      vertex 3.59326 9.91354 0
    endloop
  endfacet
  facet normal -1 0 0
    outer loop
      vertex 0 0 0
      vertex 0 50 15
      vertex 0 50 0
    endloop
  endfacet
  facet normal -1 -0 0
    outer loop
      vertex 0 50 15
      vertex 0 0 0
      vertex 0 0 15
    endloop
  endfacet
  facet normal 0 1 -0
    outer loop
      vertex 3 50 0
      vertex 0 50 15
      vertex 3 50 15
    endloop
  endfacet
  facet normal 0 1 0
    outer loop
      vertex 0 50 15
      vertex 3 50 0
      vertex 0 50 0
    endloop
  endfacet
  facet normal 0 -1 0
    outer loop
      vertex 0 0 0
      vertex 3 0 15
      vertex 0 0 15
    endloop
  endfacet
  facet normal 0 -1 -0
    outer loop
      vertex 3 0 15
      vertex 0 0 0
      vertex 3 0 0
    endloop
  endfacet
endsolid OpenSCAD_Model
