solid OpenSCAD_Model
  facet normal -1 0 0
    outer loop
      vertex 0 4 0
      vertex 0 72 15
      vertex 0 72 0
    endloop
  endfacet
  facet normal -1 -0 0
    outer loop
      vertex 0 72 15
      vertex 0 4 0
      vertex 0 4 15
    endloop
  endfacet
  facet normal 0 0 1
    outer loop
      vertex 4 4 15
      vertex 0.661738 2.51371 15
      vertex 0.824429 2.38197 15
    endloop
  endfacet
  facet normal 0 0 1
    outer loop
      vertex 0 4 15
      vertex 4 44 15
      vertex 0 72 15
    endloop
  endfacet
  facet normal 0 0 1
    outer loop
      vertex 4 44 15
      vertex 0 4 15
      vertex 0.661738 2.51371 15
    endloop
  endfacet
  facet normal 0 0 1
    outer loop
      vertex 0.661738 2.51371 15
      vertex 0 4 15
      vertex 0.51371 2.66174 15
    endloop
  endfacet
  facet normal 0 0 1
    outer loop
      vertex 0.51371 2.66174 15
      vertex 0 4 15
      vertex 0.381966 2.82443 15
    endloop
  endfacet
  facet normal 0 0 1
    outer loop
      vertex 0.267949 3 15
      vertex 0 4 15
      vertex 0.172909 3.18653 15
    endloop
  endfacet
  facet normal 0 0 1
    outer loop
      vertex 0.172909 3.18653 15
      vertex 0 4 15
      vertex 0.0978861 3.38197 15
    endloop
  endfacet
  facet normal 0 0 1
    outer loop
      vertex 0.0978861 3.38197 15
      vertex 0 4 15
      vertex 0.043704 3.58418 15
    endloop
  endfacet
  facet normal 0 0 1
    outer loop
      vertex 0.381966 2.82443 15
      vertex 0 4 15
      vertex 0.267949 3 15
    endloop
  endfacet
  facet normal 0 0 1
    outer loop
      vertex -9.70557 78.5423 15
      vertex 0.967687 75.8812 15
      vertex 0.967688 75.8812 15
    endloop
  endfacet
  facet normal 0 0 1
    outer loop
      vertex -9.70557 78.5423 15
      vertex 0 72 15
      vertex 0.967687 75.8812 15
    endloop
  endfacet
  facet normal 0 0 1
    outer loop
      vertex -9.70557 78.5423 15
      vertex -10.6733 74.6611 15
      vertex 0 72 15
    endloop
  endfacet
  facet normal 0 0 1
    outer loop
      vertex -9.70557 78.5423 15
      vertex -10.9195 74.731 15
      vertex -10.6733 74.6611 15
    endloop
  endfacet
  facet normal 0 0 1
    outer loop
      vertex -9.70557 78.5423 15
      vertex -11.1607 74.8164 15
      vertex -10.9195 74.731 15
    endloop
  endfacet
  facet normal 0 0 1
    outer loop
      vertex -9.70557 78.5423 15
      vertex -11.396 74.9171 15
      vertex -11.1607 74.8164 15
    endloop
  endfacet
  facet normal 0 0 1
    outer loop
      vertex -9.70557 78.5423 15
      vertex -11.6244 75.0326 15
      vertex -11.396 74.9171 15
    endloop
  endfacet
  facet normal 0 0 1
    outer loop
      vertex -9.70557 78.5423 15
      vertex -11.8449 75.1625 15
      vertex -11.6244 75.0326 15
    endloop
  endfacet
  facet normal 0 0 1
    outer loop
      vertex -9.70557 78.5423 15
      vertex -12.0567 75.3063 15
      vertex -11.8449 75.1625 15
    endloop
  endfacet
  facet normal 0 0 1
    outer loop
      vertex -9.70557 78.5423 15
      vertex -12.2588 75.4632 15
      vertex -12.0567 75.3063 15
    endloop
  endfacet
  facet normal 0 0 1
    outer loop
      vertex -9.70557 78.5423 15
      vertex -12.4505 75.6328 15
      vertex -12.2588 75.4632 15
    endloop
  endfacet
  facet normal 0 0 1
    outer loop
      vertex -9.70557 78.5423 15
      vertex -12.631 75.8143 15
      vertex -12.4505 75.6328 15
    endloop
  endfacet
  facet normal 0 0 1
    outer loop
      vertex -9.70557 78.5423 15
      vertex -12.7995 76.007 15
      vertex -12.631 75.8143 15
    endloop
  endfacet
  facet normal 0 0 1
    outer loop
      vertex -9.70557 78.5423 15
      vertex -12.9553 76.2101 15
      vertex -12.7995 76.007 15
    endloop
  endfacet
  facet normal 0 0 1
    outer loop
      vertex -9.70557 78.5423 15
      vertex -13.0978 76.4226 15
      vertex -12.9553 76.2101 15
    endloop
  endfacet
  facet normal 0 0 1
    outer loop
      vertex -9.70557 78.5423 15
      vertex -13.2264 76.6439 15
      vertex -13.0978 76.4226 15
    endloop
  endfacet
  facet normal 0 0 1
    outer loop
      vertex -9.70557 78.5423 15
      vertex -13.3406 76.873 15
      vertex -13.2264 76.6439 15
    endloop
  endfacet
  facet normal -0 0 1
    outer loop
      vertex -13.48 79.8666 15
      vertex -9.70557 78.5423 15
      vertex -13.3876 80.1052 15
    endloop
  endfacet
  facet normal 0 0 1
    outer loop
      vertex -9.70557 78.5423 15
      vertex -13.4399 77.1089 15
      vertex -13.3406 76.873 15
    endloop
  endfacet
  facet normal -0 0 1
    outer loop
      vertex -13.557 79.6225 15
      vertex -9.70557 78.5423 15
      vertex -13.48 79.8666 15
    endloop
  endfacet
  facet normal 0 0 1
    outer loop
      vertex -9.70557 78.5423 15
      vertex -13.5239 77.3506 15
      vertex -13.4399 77.1089 15
    endloop
  endfacet
  facet normal -0 0 1
    outer loop
      vertex -13.6182 79.374 15
      vertex -9.70557 78.5423 15
      vertex -13.557 79.6225 15
    endloop
  endfacet
  facet normal 0 0 1
    outer loop
      vertex -9.70557 78.5423 15
      vertex -13.5923 77.5972 15
      vertex -13.5239 77.3506 15
    endloop
  endfacet
  facet normal -0 0 1
    outer loop
      vertex -13.6633 79.122 15
      vertex -9.70557 78.5423 15
      vertex -13.6182 79.374 15
    endloop
  endfacet
  facet normal 0 0 1
    outer loop
      vertex -9.70557 78.5423 15
      vertex -13.6448 77.8477 15
      vertex -13.5923 77.5972 15
    endloop
  endfacet
  facet normal -0 0 1
    outer loop
      vertex -13.6923 78.8678 15
      vertex -9.70557 78.5423 15
      vertex -13.6633 79.122 15
    endloop
  endfacet
  facet normal 0 0 1
    outer loop
      vertex -9.70557 78.5423 15
      vertex -13.6812 78.1011 15
      vertex -13.6448 77.8477 15
    endloop
  endfacet
  facet normal -0 0 1
    outer loop
      vertex -13.705 78.6121 15
      vertex -9.70557 78.5423 15
      vertex -13.6923 78.8678 15
    endloop
  endfacet
  facet normal 0 0 1
    outer loop
      vertex -9.70557 78.5423 15
      vertex -13.7012 78.3562 15
      vertex -13.6812 78.1011 15
    endloop
  endfacet
  facet normal 0 0 1
    outer loop
      vertex -9.70557 78.5423 15
      vertex -13.705 78.6121 15
      vertex -13.7012 78.3562 15
    endloop
  endfacet
  facet normal 0 0 1
    outer loop
      vertex 3.99202 72.2525 15
      vertex 0 72 15
      vertex 4 72 15
    endloop
  endfacet
  facet normal 0 0 1
    outer loop
      vertex 4 72 15
      vertex 0 72 15
      vertex 4 51 15
    endloop
  endfacet
  facet normal 0 0 1
    outer loop
      vertex 3.96812 72.504 15
      vertex 0 72 15
      vertex 3.99202 72.2525 15
    endloop
  endfacet
  facet normal 0 0 1
    outer loop
      vertex 0.661738 2.51371 15
      vertex 4 4 15
      vertex 4 44 15
    endloop
  endfacet
  facet normal 0 0 1
    outer loop
      vertex 3.9284 72.7534 15
      vertex 0 72 15
      vertex 3.96812 72.504 15
    endloop
  endfacet
  facet normal 0 0 1
    outer loop
      vertex 4 4 15
      vertex 0.824429 2.38197 15
      vertex 3.98904 3.79094 15
    endloop
  endfacet
  facet normal 0 0 1
    outer loop
      vertex 3.87301 72.9999 15
      vertex 0 72 15
      vertex 3.9284 72.7534 15
    endloop
  endfacet
  facet normal 0 0 1
    outer loop
      vertex 3.98904 3.79094 15
      vertex 0.824429 2.38197 15
      vertex 3.9563 3.58418 15
    endloop
  endfacet
  facet normal 0 0 1
    outer loop
      vertex 3.80217 73.2424 15
      vertex 0 72 15
      vertex 3.87301 72.9999 15
    endloop
  endfacet
  facet normal 0 0 1
    outer loop
      vertex 3.9563 3.58418 15
      vertex 0.824429 2.38197 15
      vertex 3.90211 3.38197 15
    endloop
  endfacet
  facet normal 0 0 1
    outer loop
      vertex 3.71616 73.4799 15
      vertex 0 72 15
      vertex 3.80217 73.2424 15
    endloop
  endfacet
  facet normal 0 0 1
    outer loop
      vertex 3.90211 3.38197 15
      vertex 0.824429 2.38197 15
      vertex 3.82709 3.18653 15
    endloop
  endfacet
  facet normal 0 0 1
    outer loop
      vertex 3.61533 73.7115 15
      vertex 0 72 15
      vertex 3.71616 73.4799 15
    endloop
  endfacet
  facet normal 0 0 1
    outer loop
      vertex 3.82709 3.18653 15
      vertex 0.824429 2.38197 15
      vertex 3.73205 3 15
    endloop
  endfacet
  facet normal 0 0 1
    outer loop
      vertex 3.50009 73.9363 15
      vertex 0 72 15
      vertex 3.61533 73.7115 15
    endloop
  endfacet
  facet normal 0 0 1
    outer loop
      vertex 3.37088 74.1534 15
      vertex 0 72 15
      vertex 3.50009 73.9363 15
    endloop
  endfacet
  facet normal 0 0 1
    outer loop
      vertex 3.73205 3 15
      vertex 0.824429 2.38197 15
      vertex 3.61803 2.82443 15
    endloop
  endfacet
  facet normal 0 0 1
    outer loop
      vertex 3.22823 74.3619 15
      vertex 0 72 15
      vertex 3.37088 74.1534 15
    endloop
  endfacet
  facet normal 0 0 1
    outer loop
      vertex 3.61803 2.82443 15
      vertex 0.824429 2.38197 15
      vertex 3.48629 2.66174 15
    endloop
  endfacet
  facet normal 0 0 1
    outer loop
      vertex 3.07271 74.561 15
      vertex 0 72 15
      vertex 3.22823 74.3619 15
    endloop
  endfacet
  facet normal 0 0 1
    outer loop
      vertex 3.48629 2.66174 15
      vertex 0.824429 2.38197 15
      vertex 3.33826 2.51371 15
    endloop
  endfacet
  facet normal 0 0 1
    outer loop
      vertex 2.90493 74.7498 15
      vertex 0 72 15
      vertex 3.07271 74.561 15
    endloop
  endfacet
  facet normal 0 0 1
    outer loop
      vertex 3.33826 2.51371 15
      vertex 0.824429 2.38197 15
      vertex 3.17557 2.38197 15
    endloop
  endfacet
  facet normal 0 0 1
    outer loop
      vertex 2.72556 74.9277 15
      vertex 0 72 15
      vertex 2.90493 74.7498 15
    endloop
  endfacet
  facet normal 0 0 1
    outer loop
      vertex 3.17557 2.38197 15
      vertex 0.824429 2.38197 15
      vertex 3 2.26795 15
    endloop
  endfacet
  facet normal 0 0 1
    outer loop
      vertex 2.53532 75.0939 15
      vertex 0 72 15
      vertex 2.72556 74.9277 15
    endloop
  endfacet
  facet normal 0 0 1
    outer loop
      vertex 3 2.26795 15
      vertex 0.824429 2.38197 15
      vertex 2.81347 2.17291 15
    endloop
  endfacet
  facet normal 0 0 1
    outer loop
      vertex 2.33497 75.2477 15
      vertex 0 72 15
      vertex 2.53532 75.0939 15
    endloop
  endfacet
  facet normal 0 0 1
    outer loop
      vertex 2.81347 2.17291 15
      vertex 0.824429 2.38197 15
      vertex 2.61803 2.09789 15
    endloop
  endfacet
  facet normal 0 0 1
    outer loop
      vertex 2.12531 75.3887 15
      vertex 0 72 15
      vertex 2.33497 75.2477 15
    endloop
  endfacet
  facet normal 0 0 1
    outer loop
      vertex 2.61803 2.09789 15
      vertex 0.824429 2.38197 15
      vertex 2.41582 2.0437 15
    endloop
  endfacet
  facet normal 0 0 1
    outer loop
      vertex 1.90717 75.5161 15
      vertex 0 72 15
      vertex 2.12531 75.3887 15
    endloop
  endfacet
  facet normal 0 0 1
    outer loop
      vertex 2.41582 2.0437 15
      vertex 0.824429 2.38197 15
      vertex 2.20906 2.01096 15
    endloop
  endfacet
  facet normal 0 0 1
    outer loop
      vertex 1.68143 75.6294 15
      vertex 0 72 15
      vertex 1.90717 75.5161 15
    endloop
  endfacet
  facet normal 0 0 1
    outer loop
      vertex 2.20906 2.01096 15
      vertex 0.824429 2.38197 15
      vertex 2 2 15
    endloop
  endfacet
  facet normal 0 0 1
    outer loop
      vertex 1.44898 75.7283 15
      vertex 0 72 15
      vertex 1.68143 75.6294 15
    endloop
  endfacet
  facet normal 0 0 1
    outer loop
      vertex 2 2 15
      vertex 0.824429 2.38197 15
      vertex 1.79094 2.01096 15
    endloop
  endfacet
  facet normal 0 0 1
    outer loop
      vertex 1.21075 75.8124 15
      vertex 0 72 15
      vertex 1.44898 75.7283 15
    endloop
  endfacet
  facet normal 0 0 1
    outer loop
      vertex 1.79094 2.01096 15
      vertex 0.824429 2.38197 15
      vertex 1.58418 2.0437 15
    endloop
  endfacet
  facet normal 0 0 1
    outer loop
      vertex 0 72 15
      vertex 1.21075 75.8124 15
      vertex 0.967687 75.8812 15
    endloop
  endfacet
  facet normal 0 0 1
    outer loop
      vertex 1.58418 2.0437 15
      vertex 0.824429 2.38197 15
      vertex 1.38197 2.09789 15
    endloop
  endfacet
  facet normal 0 0 1
    outer loop
      vertex 1.38197 2.09789 15
      vertex 0.824429 2.38197 15
      vertex 1.18653 2.17291 15
    endloop
  endfacet
  facet normal 0 0 1
    outer loop
      vertex 4 51 15
      vertex 0 72 15
      vertex 4 44 15
    endloop
  endfacet
  facet normal 0 0 1
    outer loop
      vertex 1.18653 2.17291 15
      vertex 0.824429 2.38197 15
      vertex 1 2.26795 15
    endloop
  endfacet
  facet normal -0 0 1
    outer loop
      vertex 13 60 15
      vertex 14 49.1421 15
      vertex 14 60 15
    endloop
  endfacet
  facet normal -0 0 1
    outer loop
      vertex 4 51 15
      vertex 14 49.1421 15
      vertex 13 60 15
    endloop
  endfacet
  facet normal 0 0 1
    outer loop
      vertex 14 49.1421 15
      vertex 4 51 15
      vertex 9.85786 45 15
    endloop
  endfacet
  facet normal 0 0 1
    outer loop
      vertex 9.85786 45 15
      vertex 4 51 15
      vertex 5 45 15
    endloop
  endfacet
  facet normal 0 0 1
    outer loop
      vertex 5 45 15
      vertex 4 51 15
      vertex 4.89547 44.9945 15
    endloop
  endfacet
  facet normal 0 0 1
    outer loop
      vertex 4.89547 44.9945 15
      vertex 4 51 15
      vertex 4.79209 44.9781 15
    endloop
  endfacet
  facet normal 0 0 1
    outer loop
      vertex 4.79209 44.9781 15
      vertex 4 51 15
      vertex 4.69098 44.9511 15
    endloop
  endfacet
  facet normal 0 0 1
    outer loop
      vertex 4.69098 44.9511 15
      vertex 4 51 15
      vertex 4.59326 44.9135 15
    endloop
  endfacet
  facet normal 0 0 1
    outer loop
      vertex 4.59326 44.9135 15
      vertex 4 51 15
      vertex 4.5 44.866 15
    endloop
  endfacet
  facet normal 0 0 1
    outer loop
      vertex 4.5 44.866 15
      vertex 4 51 15
      vertex 4.41222 44.809 15
    endloop
  endfacet
  facet normal 0 0 1
    outer loop
      vertex 4.41222 44.809 15
      vertex 4 51 15
      vertex 4.33087 44.7431 15
    endloop
  endfacet
  facet normal 0 0 1
    outer loop
      vertex 4.33087 44.7431 15
      vertex 4 51 15
      vertex 4.25686 44.6691 15
    endloop
  endfacet
  facet normal 0 0 1
    outer loop
      vertex 4.25686 44.6691 15
      vertex 4 51 15
      vertex 4.19098 44.5878 15
    endloop
  endfacet
  facet normal 0 0 1
    outer loop
      vertex 4.19098 44.5878 15
      vertex 4 51 15
      vertex 4.13398 44.5 15
    endloop
  endfacet
  facet normal 0 0 1
    outer loop
      vertex 4 51 15
      vertex 4.08646 44.4067 15
      vertex 4.13398 44.5 15
    endloop
  endfacet
  facet normal 0 0 1
    outer loop
      vertex 4 51 15
      vertex 4.04894 44.309 15
      vertex 4.08646 44.4067 15
    endloop
  endfacet
  facet normal 0 0 1
    outer loop
      vertex 4 51 15
      vertex 4.02185 44.2079 15
      vertex 4.04894 44.309 15
    endloop
  endfacet
  facet normal 0 0 1
    outer loop
      vertex 4 51 15
      vertex 4.00548 44.1045 15
      vertex 4.02185 44.2079 15
    endloop
  endfacet
  facet normal 0 0 1
    outer loop
      vertex 4.00548 44.1045 15
      vertex 4 51 15
      vertex 4 44 15
    endloop
  endfacet
  facet normal 0 0 1
    outer loop
      vertex 0.043704 3.58418 15
      vertex 0 4 15
      vertex 0.0109558 3.79094 15
    endloop
  endfacet
  facet normal 1 -0 0
    outer loop
      vertex 4 51 15
      vertex 4 72 0
      vertex 4 72 15
    endloop
  endfacet
  facet normal 1 0 0
    outer loop
      vertex 4 72 0
      vertex 4 51 15
      vertex 4 51 0
    endloop
  endfacet
  facet normal 1 -0 0
    outer loop
      vertex 4 4 15
      vertex 4 44 0
      vertex 4 44 15
    endloop
  endfacet
  facet normal 1 0 0
    outer loop
      vertex 4 44 0
      vertex 4 4 15
      vertex 4 4 0
    endloop
  endfacet
  facet normal 0 0 -1
    outer loop
      vertex 0 4 0
      vertex 4 44 0
      vertex 4 4 0
    endloop
  endfacet
  facet normal 0 0 -1
    outer loop
      vertex 0 72 0
      vertex 4 44 0
      vertex 0 4 0
    endloop
  endfacet
  facet normal 0 0 -1
    outer loop
      vertex 4 51 0
      vertex 0 72 0
      vertex 4 72 0
    endloop
  endfacet
  facet normal 0 0 -1
    outer loop
      vertex 0 4 0
      vertex 4 4 0
      vertex 3.98904 3.79094 0
    endloop
  endfacet
  facet normal 0 0 -1
    outer loop
      vertex 4 72 0
      vertex 0 72 0
      vertex 3.99202 72.2525 0
    endloop
  endfacet
  facet normal 0 0 -1
    outer loop
      vertex 0 4 0
      vertex 3.98904 3.79094 0
      vertex 3.9563 3.58418 0
    endloop
  endfacet
  facet normal -0 0 -1
    outer loop
      vertex 3.99202 72.2525 0
      vertex 0 72 0
      vertex 3.96812 72.504 0
    endloop
  endfacet
  facet normal 0 0 -1
    outer loop
      vertex 0 4 0
      vertex 3.9563 3.58418 0
      vertex 3.90211 3.38197 0
    endloop
  endfacet
  facet normal -0 0 -1
    outer loop
      vertex 3.96812 72.504 0
      vertex 0 72 0
      vertex 3.9284 72.7534 0
    endloop
  endfacet
  facet normal 0 0 -1
    outer loop
      vertex 0 4 0
      vertex 3.90211 3.38197 0
      vertex 3.82709 3.18653 0
    endloop
  endfacet
  facet normal -0 0 -1
    outer loop
      vertex 3.9284 72.7534 0
      vertex 0 72 0
      vertex 3.87301 72.9999 0
    endloop
  endfacet
  facet normal 0 0 -1
    outer loop
      vertex 0 4 0
      vertex 3.82709 3.18653 0
      vertex 3.73205 3 0
    endloop
  endfacet
  facet normal -0 0 -1
    outer loop
      vertex 3.87301 72.9999 0
      vertex 0 72 0
      vertex 3.80217 73.2424 0
    endloop
  endfacet
  facet normal 0 0 -1
    outer loop
      vertex 0 4 0
      vertex 3.73205 3 0
      vertex 3.61803 2.82443 0
    endloop
  endfacet
  facet normal -0 0 -1
    outer loop
      vertex 3.80217 73.2424 0
      vertex 0 72 0
      vertex 3.71616 73.4799 0
    endloop
  endfacet
  facet normal -0 0 -1
    outer loop
      vertex 3.71616 73.4799 0
      vertex 0 72 0
      vertex 3.61533 73.7115 0
    endloop
  endfacet
  facet normal 0 0 -1
    outer loop
      vertex 0 4 0
      vertex 3.61803 2.82443 0
      vertex 3.48629 2.66174 0
    endloop
  endfacet
  facet normal -0 0 -1
    outer loop
      vertex 3.61533 73.7115 0
      vertex 0 72 0
      vertex 3.50009 73.9363 0
    endloop
  endfacet
  facet normal 0 0 -1
    outer loop
      vertex 0 4 0
      vertex 3.48629 2.66174 0
      vertex 3.33826 2.51371 0
    endloop
  endfacet
  facet normal -0 0 -1
    outer loop
      vertex 3.50009 73.9363 0
      vertex 0 72 0
      vertex 3.37088 74.1534 0
    endloop
  endfacet
  facet normal 0 0 -1
    outer loop
      vertex 0 4 0
      vertex 3.33826 2.51371 0
      vertex 3.17557 2.38197 0
    endloop
  endfacet
  facet normal -0 0 -1
    outer loop
      vertex 3.37088 74.1534 0
      vertex 0 72 0
      vertex 3.22823 74.3619 0
    endloop
  endfacet
  facet normal 0 0 -1
    outer loop
      vertex 0 4 0
      vertex 3.17557 2.38197 0
      vertex 3 2.26795 0
    endloop
  endfacet
  facet normal -0 0 -1
    outer loop
      vertex 3.22823 74.3619 0
      vertex 0 72 0
      vertex 3.07271 74.561 0
    endloop
  endfacet
  facet normal 0 0 -1
    outer loop
      vertex 0 4 0
      vertex 3 2.26795 0
      vertex 2.81347 2.17291 0
    endloop
  endfacet
  facet normal -0 0 -1
    outer loop
      vertex 3.07271 74.561 0
      vertex 0 72 0
      vertex 2.90493 74.7498 0
    endloop
  endfacet
  facet normal 0 0 -1
    outer loop
      vertex 0 4 0
      vertex 2.81347 2.17291 0
      vertex 2.61803 2.09789 0
    endloop
  endfacet
  facet normal -0 0 -1
    outer loop
      vertex 2.90493 74.7498 0
      vertex 0 72 0
      vertex 2.72556 74.9277 0
    endloop
  endfacet
  facet normal 0 0 -1
    outer loop
      vertex 0 4 0
      vertex 2.61803 2.09789 0
      vertex 2.41582 2.0437 0
    endloop
  endfacet
  facet normal -0 0 -1
    outer loop
      vertex 2.72556 74.9277 0
      vertex 0 72 0
      vertex 2.53532 75.0939 0
    endloop
  endfacet
  facet normal 0 0 -1
    outer loop
      vertex 0 4 0
      vertex 2.41582 2.0437 0
      vertex 2.20906 2.01096 0
    endloop
  endfacet
  facet normal -0 0 -1
    outer loop
      vertex 2.53532 75.0939 0
      vertex 0 72 0
      vertex 2.33497 75.2477 0
    endloop
  endfacet
  facet normal 0 0 -1
    outer loop
      vertex 0 4 0
      vertex 2.20906 2.01096 0
      vertex 2 2 0
    endloop
  endfacet
  facet normal -0 0 -1
    outer loop
      vertex 2.33497 75.2477 0
      vertex 0 72 0
      vertex 2.12531 75.3887 0
    endloop
  endfacet
  facet normal 0 0 -1
    outer loop
      vertex 0 4 0
      vertex 2 2 0
      vertex 1.79094 2.01096 0
    endloop
  endfacet
  facet normal -0 0 -1
    outer loop
      vertex 2.12531 75.3887 0
      vertex 0 72 0
      vertex 1.90717 75.5161 0
    endloop
  endfacet
  facet normal 0 0 -1
    outer loop
      vertex 0 4 0
      vertex 1.79094 2.01096 0
      vertex 1.58418 2.0437 0
    endloop
  endfacet
  facet normal -0 0 -1
    outer loop
      vertex 1.90717 75.5161 0
      vertex 0 72 0
      vertex 1.68143 75.6294 0
    endloop
  endfacet
  facet normal 0 0 -1
    outer loop
      vertex 0 4 0
      vertex 1.58418 2.0437 0
      vertex 1.38197 2.09789 0
    endloop
  endfacet
  facet normal -0 0 -1
    outer loop
      vertex 1.68143 75.6294 0
      vertex 0 72 0
      vertex 1.44898 75.7283 0
    endloop
  endfacet
  facet normal 0 0 -1
    outer loop
      vertex 0 4 0
      vertex 1.38197 2.09789 0
      vertex 1.18653 2.17291 0
    endloop
  endfacet
  facet normal 0 0 -1
    outer loop
      vertex 0 4 0
      vertex 1.18653 2.17291 0
      vertex 1 2.26795 0
    endloop
  endfacet
  facet normal -0 0 -1
    outer loop
      vertex 1.44898 75.7283 0
      vertex 0 72 0
      vertex 1.21075 75.8124 0
    endloop
  endfacet
  facet normal 0 0 -1
    outer loop
      vertex 0 4 0
      vertex 1 2.26795 0
      vertex 0.824429 2.38197 0
    endloop
  endfacet
  facet normal 0 0 -1
    outer loop
      vertex 14 49.1421 0
      vertex 13 60 0
      vertex 14 60 0
    endloop
  endfacet
  facet normal 0 0 -1
    outer loop
      vertex 4 51 0
      vertex 14 49.1421 0
      vertex 9.85786 45 0
    endloop
  endfacet
  facet normal 0 0 -1
    outer loop
      vertex 4 51 0
      vertex 9.85786 45 0
      vertex 5 45 0
    endloop
  endfacet
  facet normal 0 0 -1
    outer loop
      vertex 4 51 0
      vertex 5 45 0
      vertex 4.89547 44.9945 0
    endloop
  endfacet
  facet normal 0 0 -1
    outer loop
      vertex 4 51 0
      vertex 4.89547 44.9945 0
      vertex 4.79209 44.9781 0
    endloop
  endfacet
  facet normal 0 0 -1
    outer loop
      vertex 4 51 0
      vertex 4.79209 44.9781 0
      vertex 4.69098 44.9511 0
    endloop
  endfacet
  facet normal 0 0 -1
    outer loop
      vertex 4 51 0
      vertex 4.69098 44.9511 0
      vertex 4.59326 44.9135 0
    endloop
  endfacet
  facet normal 0 0 -1
    outer loop
      vertex 4 51 0
      vertex 4.59326 44.9135 0
      vertex 4.5 44.866 0
    endloop
  endfacet
  facet normal 0 0 -1
    outer loop
      vertex 4 51 0
      vertex 4.5 44.866 0
      vertex 4.41222 44.809 0
    endloop
  endfacet
  facet normal 0 0 -1
    outer loop
      vertex 4 51 0
      vertex 4.41222 44.809 0
      vertex 4.33087 44.7431 0
    endloop
  endfacet
  facet normal 0 0 -1
    outer loop
      vertex 4 51 0
      vertex 4.33087 44.7431 0
      vertex 4.25686 44.6691 0
    endloop
  endfacet
  facet normal 0 0 -1
    outer loop
      vertex 4 51 0
      vertex 4.25686 44.6691 0
      vertex 4.19098 44.5878 0
    endloop
  endfacet
  facet normal 0 0 -1
    outer loop
      vertex 4 51 0
      vertex 4.19098 44.5878 0
      vertex 4.13398 44.5 0
    endloop
  endfacet
  facet normal 0 0 -1
    outer loop
      vertex 14 49.1421 0
      vertex 4 51 0
      vertex 13 60 0
    endloop
  endfacet
  facet normal 0 0 -1
    outer loop
      vertex 4.08646 44.4067 0
      vertex 4 51 0
      vertex 4.13398 44.5 0
    endloop
  endfacet
  facet normal 0 0 -1
    outer loop
      vertex 4.04894 44.309 0
      vertex 4 51 0
      vertex 4.08646 44.4067 0
    endloop
  endfacet
  facet normal 0 0 -1
    outer loop
      vertex 4.02185 44.2079 0
      vertex 4 51 0
      vertex 4.04894 44.309 0
    endloop
  endfacet
  facet normal 0 0 -1
    outer loop
      vertex 4.00548 44.1045 0
      vertex 4 51 0
      vertex 4.02185 44.2079 0
    endloop
  endfacet
  facet normal 0 0 -1
    outer loop
      vertex 4 51 0
      vertex 4.00548 44.1045 0
      vertex 4 44 0
    endloop
  endfacet
  facet normal 0 0 -1
    outer loop
      vertex 0 4 0
      vertex 0.824429 2.38197 0
      vertex 0.661738 2.51371 0
    endloop
  endfacet
  facet normal 0 0 -1
    outer loop
      vertex 0 4 0
      vertex 0.661738 2.51371 0
      vertex 0.51371 2.66174 0
    endloop
  endfacet
  facet normal 0 0 -1
    outer loop
      vertex 0 4 0
      vertex 0.51371 2.66174 0
      vertex 0.381966 2.82443 0
    endloop
  endfacet
  facet normal 0 0 -1
    outer loop
      vertex 0 4 0
      vertex 0.381966 2.82443 0
      vertex 0.267949 3 0
    endloop
  endfacet
  facet normal 0 0 -1
    outer loop
      vertex 0 4 0
      vertex 0.267949 3 0
      vertex 0.172909 3.18653 0
    endloop
  endfacet
  facet normal 0 0 -1
    outer loop
      vertex 0 4 0
      vertex 0.172909 3.18653 0
      vertex 0.0978861 3.38197 0
    endloop
  endfacet
  facet normal 0 0 -1
    outer loop
      vertex 0 4 0
      vertex 0.0978861 3.38197 0
      vertex 0.043704 3.58418 0
    endloop
  endfacet
  facet normal 0 0 -1
    outer loop
      vertex 0 4 0
      vertex 0.043704 3.58418 0
      vertex 0.0109558 3.79094 0
    endloop
  endfacet
  facet normal 0 0 -1
    outer loop
      vertex 4 44 0
      vertex 0 72 0
      vertex 4 51 0
    endloop
  endfacet
  facet normal -0 0 -1
    outer loop
      vertex 1.21075 75.8124 0
      vertex 0 72 0
      vertex 0.967687 75.8812 0
    endloop
  endfacet
  facet normal 0 0 -1
    outer loop
      vertex 0.967687 75.8812 0
      vertex -9.70557 78.5423 0
      vertex 0.967688 75.8812 0
    endloop
  endfacet
  facet normal 0 0 -1
    outer loop
      vertex 0 72 0
      vertex -9.70557 78.5423 0
      vertex 0.967687 75.8812 0
    endloop
  endfacet
  facet normal 0 0 -1
    outer loop
      vertex -10.6733 74.6611 0
      vertex -9.70557 78.5423 0
      vertex 0 72 0
    endloop
  endfacet
  facet normal 0 0 -1
    outer loop
      vertex -10.9195 74.731 0
      vertex -9.70557 78.5423 0
      vertex -10.6733 74.6611 0
    endloop
  endfacet
  facet normal 0 0 -1
    outer loop
      vertex -11.1607 74.8164 0
      vertex -9.70557 78.5423 0
      vertex -10.9195 74.731 0
    endloop
  endfacet
  facet normal 0 0 -1
    outer loop
      vertex -11.396 74.9171 0
      vertex -9.70557 78.5423 0
      vertex -11.1607 74.8164 0
    endloop
  endfacet
  facet normal 0 0 -1
    outer loop
      vertex -11.6244 75.0326 0
      vertex -9.70557 78.5423 0
      vertex -11.396 74.9171 0
    endloop
  endfacet
  facet normal 0 0 -1
    outer loop
      vertex -11.8449 75.1625 0
      vertex -9.70557 78.5423 0
      vertex -11.6244 75.0326 0
    endloop
  endfacet
  facet normal 0 0 -1
    outer loop
      vertex -12.0567 75.3063 0
      vertex -9.70557 78.5423 0
      vertex -11.8449 75.1625 0
    endloop
  endfacet
  facet normal 0 0 -1
    outer loop
      vertex -12.2588 75.4632 0
      vertex -9.70557 78.5423 0
      vertex -12.0567 75.3063 0
    endloop
  endfacet
  facet normal 0 0 -1
    outer loop
      vertex -12.4505 75.6328 0
      vertex -9.70557 78.5423 0
      vertex -12.2588 75.4632 0
    endloop
  endfacet
  facet normal 0 0 -1
    outer loop
      vertex -12.631 75.8143 0
      vertex -9.70557 78.5423 0
      vertex -12.4505 75.6328 0
    endloop
  endfacet
  facet normal 0 0 -1
    outer loop
      vertex -12.7995 76.007 0
      vertex -9.70557 78.5423 0
      vertex -12.631 75.8143 0
    endloop
  endfacet
  facet normal 0 0 -1
    outer loop
      vertex -12.9553 76.2101 0
      vertex -9.70557 78.5423 0
      vertex -12.7995 76.007 0
    endloop
  endfacet
  facet normal 0 0 -1
    outer loop
      vertex -13.0978 76.4226 0
      vertex -9.70557 78.5423 0
      vertex -12.9553 76.2101 0
    endloop
  endfacet
  facet normal 0 0 -1
    outer loop
      vertex -13.2264 76.6439 0
      vertex -9.70557 78.5423 0
      vertex -13.0978 76.4226 0
    endloop
  endfacet
  facet normal 0 0 -1
    outer loop
      vertex -13.3406 76.873 0
      vertex -9.70557 78.5423 0
      vertex -13.2264 76.6439 0
    endloop
  endfacet
  facet normal 0 0 -1
    outer loop
      vertex -13.4399 77.1089 0
      vertex -9.70557 78.5423 0
      vertex -13.3406 76.873 0
    endloop
  endfacet
  facet normal 0 0 -1
    outer loop
      vertex -13.5239 77.3506 0
      vertex -9.70557 78.5423 0
      vertex -13.4399 77.1089 0
    endloop
  endfacet
  facet normal 0 0 -1
    outer loop
      vertex -9.70557 78.5423 0
      vertex -13.48 79.8666 0
      vertex -13.3876 80.1052 0
    endloop
  endfacet
  facet normal 0 0 -1
    outer loop
      vertex -13.5923 77.5972 0
      vertex -9.70557 78.5423 0
      vertex -13.5239 77.3506 0
    endloop
  endfacet
  facet normal 0 0 -1
    outer loop
      vertex -9.70557 78.5423 0
      vertex -13.557 79.6225 0
      vertex -13.48 79.8666 0
    endloop
  endfacet
  facet normal 0 0 -1
    outer loop
      vertex -13.6448 77.8477 0
      vertex -9.70557 78.5423 0
      vertex -13.5923 77.5972 0
    endloop
  endfacet
  facet normal 0 0 -1
    outer loop
      vertex -9.70557 78.5423 0
      vertex -13.6182 79.374 0
      vertex -13.557 79.6225 0
    endloop
  endfacet
  facet normal 0 0 -1
    outer loop
      vertex -13.6812 78.1011 0
      vertex -9.70557 78.5423 0
      vertex -13.6448 77.8477 0
    endloop
  endfacet
  facet normal 0 0 -1
    outer loop
      vertex -9.70557 78.5423 0
      vertex -13.6633 79.122 0
      vertex -13.6182 79.374 0
    endloop
  endfacet
  facet normal 0 0 -1
    outer loop
      vertex -13.7012 78.3562 0
      vertex -9.70557 78.5423 0
      vertex -13.6812 78.1011 0
    endloop
  endfacet
  facet normal 0 0 -1
    outer loop
      vertex -9.70557 78.5423 0
      vertex -13.6923 78.8678 0
      vertex -13.6633 79.122 0
    endloop
  endfacet
  facet normal 0 0 -1
    outer loop
      vertex -13.705 78.6121 0
      vertex -9.70557 78.5423 0
      vertex -13.7012 78.3562 0
    endloop
  endfacet
  facet normal 0 0 -1
    outer loop
      vertex -9.70557 78.5423 0
      vertex -13.705 78.6121 0
      vertex -13.6923 78.8678 0
    endloop
  endfacet
  facet normal 0.0523532 -0.998629 0
    outer loop
      vertex 2 2 0
      vertex 2.20906 2.01096 15
      vertex 2 2 15
    endloop
  endfacet
  facet normal 0.0523532 -0.998629 0
    outer loop
      vertex 2.20906 2.01096 15
      vertex 2 2 0
      vertex 2.20906 2.01096 0
    endloop
  endfacet
  facet normal -0.629307 -0.777157 0
    outer loop
      vertex 0.661738 2.51371 0
      vertex 0.824429 2.38197 15
      vertex 0.661738 2.51371 15
    endloop
  endfacet
  facet normal -0.629307 -0.777157 -0
    outer loop
      vertex 0.824429 2.38197 15
      vertex 0.661738 2.51371 0
      vertex 0.824429 2.38197 0
    endloop
  endfacet
  facet normal 0.156399 -0.987694 0
    outer loop
      vertex 2.20906 2.01096 0
      vertex 2.41582 2.0437 15
      vertex 2.20906 2.01096 15
    endloop
  endfacet
  facet normal 0.156399 -0.987694 0
    outer loop
      vertex 2.41582 2.0437 15
      vertex 2.20906 2.01096 0
      vertex 2.41582 2.0437 0
    endloop
  endfacet
  facet normal 0.358358 -0.933584 0
    outer loop
      vertex 2.61803 2.09789 0
      vertex 2.81347 2.17291 15
      vertex 2.61803 2.09789 15
    endloop
  endfacet
  facet normal 0.358358 -0.933584 0
    outer loop
      vertex 2.81347 2.17291 15
      vertex 2.61803 2.09789 0
      vertex 2.81347 2.17291 0
    endloop
  endfacet
  facet normal 0.707107 -0.707107 0
    outer loop
      vertex 3.33826 2.51371 15
      vertex 3.48629 2.66174 0
      vertex 3.48629 2.66174 15
    endloop
  endfacet
  facet normal 0.707107 -0.707107 0
    outer loop
      vertex 3.48629 2.66174 0
      vertex 3.33826 2.51371 15
      vertex 3.33826 2.51371 0
    endloop
  endfacet
  facet normal 0.544651 -0.838663 0
    outer loop
      vertex 3 2.26795 0
      vertex 3.17557 2.38197 15
      vertex 3 2.26795 15
    endloop
  endfacet
  facet normal 0.544651 -0.838663 0
    outer loop
      vertex 3.17557 2.38197 15
      vertex 3 2.26795 0
      vertex 3.17557 2.38197 0
    endloop
  endfacet
  facet normal 0.838663 -0.544651 0
    outer loop
      vertex 3.61803 2.82443 15
      vertex 3.73205 3 0
      vertex 3.73205 3 15
    endloop
  endfacet
  facet normal 0.838663 -0.544651 0
    outer loop
      vertex 3.73205 3 0
      vertex 3.61803 2.82443 15
      vertex 3.61803 2.82443 0
    endloop
  endfacet
  facet normal 0.933584 -0.358358 0
    outer loop
      vertex 3.82709 3.18653 15
      vertex 3.90211 3.38197 0
      vertex 3.90211 3.38197 15
    endloop
  endfacet
  facet normal 0.933584 -0.358358 0
    outer loop
      vertex 3.90211 3.38197 0
      vertex 3.82709 3.18653 15
      vertex 3.82709 3.18653 0
    endloop
  endfacet
  facet normal -0.544649 -0.838664 0
    outer loop
      vertex 0.824429 2.38197 0
      vertex 1 2.26795 15
      vertex 0.824429 2.38197 15
    endloop
  endfacet
  facet normal -0.544649 -0.838664 -0
    outer loop
      vertex 1 2.26795 15
      vertex 0.824429 2.38197 0
      vertex 1 2.26795 0
    endloop
  endfacet
  facet normal -0.358358 -0.933584 0
    outer loop
      vertex 1.18653 2.17291 0
      vertex 1.38197 2.09789 15
      vertex 1.18653 2.17291 15
    endloop
  endfacet
  facet normal -0.358358 -0.933584 -0
    outer loop
      vertex 1.38197 2.09789 15
      vertex 1.18653 2.17291 0
      vertex 1.38197 2.09789 0
    endloop
  endfacet
  facet normal -0.258855 -0.965916 0
    outer loop
      vertex 1.38197 2.09789 0
      vertex 1.58418 2.0437 15
      vertex 1.38197 2.09789 15
    endloop
  endfacet
  facet normal -0.258855 -0.965916 -0
    outer loop
      vertex 1.58418 2.0437 15
      vertex 1.38197 2.09789 0
      vertex 1.58418 2.0437 0
    endloop
  endfacet
  facet normal -0.0523532 -0.998629 0
    outer loop
      vertex 1.79094 2.01096 0
      vertex 2 2 15
      vertex 1.79094 2.01096 15
    endloop
  endfacet
  facet normal -0.0523532 -0.998629 -0
    outer loop
      vertex 2 2 15
      vertex 1.79094 2.01096 0
      vertex 2 2 0
    endloop
  endfacet
  facet normal -0.838669 -0.544641 0
    outer loop
      vertex 0.381966 2.82443 0
      vertex 0.267949 3 15
      vertex 0.267949 3 0
    endloop
  endfacet
  facet normal -0.838669 -0.544641 0
    outer loop
      vertex 0.267949 3 15
      vertex 0.381966 2.82443 0
      vertex 0.381966 2.82443 15
    endloop
  endfacet
  facet normal -0.707112 -0.707102 0
    outer loop
      vertex 0.661738 2.51371 0
      vertex 0.51371 2.66174 15
      vertex 0.51371 2.66174 0
    endloop
  endfacet
  facet normal -0.707112 -0.707102 0
    outer loop
      vertex 0.51371 2.66174 15
      vertex 0.661738 2.51371 0
      vertex 0.661738 2.51371 15
    endloop
  endfacet
  facet normal -0.93358 -0.35837 0
    outer loop
      vertex 0.172909 3.18653 0
      vertex 0.0978861 3.38197 15
      vertex 0.0978861 3.38197 0
    endloop
  endfacet
  facet normal -0.93358 -0.35837 0
    outer loop
      vertex 0.0978861 3.38197 15
      vertex 0.172909 3.18653 0
      vertex 0.172909 3.18653 15
    endloop
  endfacet
  facet normal -0.987688 -0.156437 0
    outer loop
      vertex 0.043704 3.58418 0
      vertex 0.0109558 3.79094 15
      vertex 0.0109558 3.79094 0
    endloop
  endfacet
  facet normal -0.987688 -0.156437 0
    outer loop
      vertex 0.0109558 3.79094 15
      vertex 0.043704 3.58418 0
      vertex 0.043704 3.58418 15
    endloop
  endfacet
  facet normal -0.99863 -0.0523332 0
    outer loop
      vertex 0.0109558 3.79094 0
      vertex 0 4 15
      vertex 0 4 0
    endloop
  endfacet
  facet normal -0.99863 -0.0523332 0
    outer loop
      vertex 0 4 15
      vertex 0.0109558 3.79094 0
      vertex 0.0109558 3.79094 15
    endloop
  endfacet
  facet normal 0.258855 -0.965916 0
    outer loop
      vertex 2.41582 2.0437 0
      vertex 2.61803 2.09789 15
      vertex 2.41582 2.0437 15
    endloop
  endfacet
  facet normal 0.258855 -0.965916 0
    outer loop
      vertex 2.61803 2.09789 15
      vertex 2.41582 2.0437 0
      vertex 2.61803 2.09789 0
    endloop
  endfacet
  facet normal 0.453984 -0.89101 0
    outer loop
      vertex 2.81347 2.17291 0
      vertex 3 2.26795 15
      vertex 2.81347 2.17291 15
    endloop
  endfacet
  facet normal 0.453984 -0.89101 0
    outer loop
      vertex 3 2.26795 15
      vertex 2.81347 2.17291 0
      vertex 3 2.26795 0
    endloop
  endfacet
  facet normal 0.777155 -0.62931 0
    outer loop
      vertex 3.48629 2.66174 15
      vertex 3.61803 2.82443 0
      vertex 3.61803 2.82443 15
    endloop
  endfacet
  facet normal 0.777155 -0.62931 0
    outer loop
      vertex 3.61803 2.82443 0
      vertex 3.48629 2.66174 15
      vertex 3.48629 2.66174 0
    endloop
  endfacet
  facet normal 0.62931 -0.777155 0
    outer loop
      vertex 3.17557 2.38197 0
      vertex 3.33826 2.51371 15
      vertex 3.17557 2.38197 15
    endloop
  endfacet
  facet normal 0.62931 -0.777155 0
    outer loop
      vertex 3.33826 2.51371 15
      vertex 3.17557 2.38197 0
      vertex 3.33826 2.51371 0
    endloop
  endfacet
  facet normal 0.89101 -0.453984 0
    outer loop
      vertex 3.73205 3 15
      vertex 3.82709 3.18653 0
      vertex 3.82709 3.18653 15
    endloop
  endfacet
  facet normal 0.89101 -0.453984 0
    outer loop
      vertex 3.82709 3.18653 0
      vertex 3.73205 3 15
      vertex 3.73205 3 0
    endloop
  endfacet
  facet normal 0.987694 -0.156399 0
    outer loop
      vertex 3.9563 3.58418 15
      vertex 3.98904 3.79094 0
      vertex 3.98904 3.79094 15
    endloop
  endfacet
  facet normal 0.987694 -0.156399 0
    outer loop
      vertex 3.98904 3.79094 0
      vertex 3.9563 3.58418 15
      vertex 3.9563 3.58418 0
    endloop
  endfacet
  facet normal 0.965916 -0.258855 0
    outer loop
      vertex 3.90211 3.38197 15
      vertex 3.9563 3.58418 0
      vertex 3.9563 3.58418 15
    endloop
  endfacet
  facet normal 0.965916 -0.258855 0
    outer loop
      vertex 3.9563 3.58418 0
      vertex 3.90211 3.38197 15
      vertex 3.90211 3.38197 0
    endloop
  endfacet
  facet normal 0.998629 -0.0523532 0
    outer loop
      vertex 3.98904 3.79094 15
      vertex 4 4 0
      vertex 4 4 15
    endloop
  endfacet
  facet normal 0.998629 -0.0523532 0
    outer loop
      vertex 4 4 0
      vertex 3.98904 3.79094 15
      vertex 3.98904 3.79094 0
    endloop
  endfacet
  facet normal -0.453984 -0.89101 0
    outer loop
      vertex 1 2.26795 0
      vertex 1.18653 2.17291 15
      vertex 1 2.26795 15
    endloop
  endfacet
  facet normal -0.453984 -0.89101 -0
    outer loop
      vertex 1.18653 2.17291 15
      vertex 1 2.26795 0
      vertex 1.18653 2.17291 0
    endloop
  endfacet
  facet normal -0.156399 -0.987694 0
    outer loop
      vertex 1.58418 2.0437 0
      vertex 1.79094 2.01096 15
      vertex 1.58418 2.0437 15
    endloop
  endfacet
  facet normal -0.156399 -0.987694 -0
    outer loop
      vertex 1.79094 2.01096 15
      vertex 1.58418 2.0437 0
      vertex 1.79094 2.01096 0
    endloop
  endfacet
  facet normal -0.777145 -0.629321 0
    outer loop
      vertex 0.51371 2.66174 0
      vertex 0.381966 2.82443 15
      vertex 0.381966 2.82443 0
    endloop
  endfacet
  facet normal -0.777145 -0.629321 0
    outer loop
      vertex 0.381966 2.82443 15
      vertex 0.51371 2.66174 0
      vertex 0.51371 2.66174 15
    endloop
  endfacet
  facet normal -0.89101 -0.453984 0
    outer loop
      vertex 0.267949 3 0
      vertex 0.172909 3.18653 15
      vertex 0.172909 3.18653 0
    endloop
  endfacet
  facet normal -0.89101 -0.453984 0
    outer loop
      vertex 0.172909 3.18653 15
      vertex 0.267949 3 0
      vertex 0.267949 3 15
    endloop
  endfacet
  facet normal -0.965926 -0.258819 0
    outer loop
      vertex 0.0978861 3.38197 0
      vertex 0.043704 3.58418 15
      vertex 0.043704 3.58418 0
    endloop
  endfacet
  facet normal -0.965926 -0.258819 0
    outer loop
      vertex 0.043704 3.58418 15
      vertex 0.0978861 3.38197 0
      vertex 0.0978861 3.38197 15
    endloop
  endfacet
  facet normal -0.920506 0.390729 0
    outer loop
      vertex -13.3876 80.1052 0
      vertex -10.0664 87.9295 15
      vertex -10.0664 87.9295 0
    endloop
  endfacet
  facet normal -0.920506 0.390729 0
    outer loop
      vertex -10.0664 87.9295 15
      vertex -13.3876 80.1052 0
      vertex -13.3876 80.1052 15
    endloop
  endfacet
  facet normal 0 0 1
    outer loop
      vertex -5.29523 90.2155 15
      vertex -4.82143 90.0486 15
      vertex -5.05571 90.1395 15
    endloop
  endfacet
  facet normal 0 0 1
    outer loop
      vertex -5.53905 90.2763 15
      vertex -4.82143 90.0486 15
      vertex -5.29523 90.2155 15
    endloop
  endfacet
  facet normal 0 0 1
    outer loop
      vertex -5.78621 90.3216 15
      vertex -4.82143 90.0486 15
      vertex -5.53905 90.2763 15
    endloop
  endfacet
  facet normal 0 0 1
    outer loop
      vertex -6.03573 90.3514 15
      vertex -4.82143 90.0486 15
      vertex -5.78621 90.3216 15
    endloop
  endfacet
  facet normal 0 0 1
    outer loop
      vertex -6.28662 90.3654 15
      vertex -4.82143 90.0486 15
      vertex -6.03573 90.3514 15
    endloop
  endfacet
  facet normal -0 0 1
    outer loop
      vertex -6.5379 90.3637 15
      vertex -4.82143 90.0486 15
      vertex -6.28662 90.3654 15
    endloop
  endfacet
  facet normal -0 0 1
    outer loop
      vertex -6.78858 90.3461 15
      vertex -4.82143 90.0486 15
      vertex -6.5379 90.3637 15
    endloop
  endfacet
  facet normal -0 0 1
    outer loop
      vertex -7.03765 90.3129 15
      vertex -4.82143 90.0486 15
      vertex -6.78858 90.3461 15
    endloop
  endfacet
  facet normal -0 0 1
    outer loop
      vertex -7.28415 90.2641 15
      vertex -4.82143 90.0486 15
      vertex -7.03765 90.3129 15
    endloop
  endfacet
  facet normal -0 0 1
    outer loop
      vertex -7.5271 90.1999 15
      vertex -4.82143 90.0486 15
      vertex -7.28415 90.2641 15
    endloop
  endfacet
  facet normal -0 0 1
    outer loop
      vertex -7.76554 90.1206 15
      vertex -4.82143 90.0486 15
      vertex -7.5271 90.1999 15
    endloop
  endfacet
  facet normal 0 0 1
    outer loop
      vertex -7.99853 90.0265 15
      vertex -4.82143 90.0486 15
      vertex -7.76554 90.1206 15
    endloop
  endfacet
  facet normal 0 0 1
    outer loop
      vertex -8.22515 89.9179 15
      vertex -4.82143 90.0486 15
      vertex -7.99853 90.0265 15
    endloop
  endfacet
  facet normal 0 0 1
    outer loop
      vertex -8.4445 89.7953 15
      vertex -4.82143 90.0486 15
      vertex -8.22515 89.9179 15
    endloop
  endfacet
  facet normal 0 0 1
    outer loop
      vertex -8.65573 89.6592 15
      vertex -4.82143 90.0486 15
      vertex -8.4445 89.7953 15
    endloop
  endfacet
  facet normal 0 0 1
    outer loop
      vertex -8.85798 89.51 15
      vertex -4.82143 90.0486 15
      vertex -8.65573 89.6592 15
    endloop
  endfacet
  facet normal 0 0 1
    outer loop
      vertex -9.05048 89.3485 15
      vertex -4.82143 90.0486 15
      vertex -8.85798 89.51 15
    endloop
  endfacet
  facet normal 0 0 1
    outer loop
      vertex -9.23246 89.1752 15
      vertex -4.82143 90.0486 15
      vertex -9.05048 89.3485 15
    endloop
  endfacet
  facet normal 0 0 1
    outer loop
      vertex -9.40319 88.9909 15
      vertex -4.82143 90.0486 15
      vertex -9.23246 89.1752 15
    endloop
  endfacet
  facet normal 0 0 1
    outer loop
      vertex -9.56201 88.7961 15
      vertex -4.82143 90.0486 15
      vertex -9.40319 88.9909 15
    endloop
  endfacet
  facet normal 0 0 1
    outer loop
      vertex -10.0664 87.9295 15
      vertex -4.82143 90.0486 15
      vertex -9.56201 88.7961 15
    endloop
  endfacet
  facet normal 0 0 1
    outer loop
      vertex -10.0664 87.9295 15
      vertex -9.56201 88.7961 15
      vertex -9.70829 88.5918 15
    endloop
  endfacet
  facet normal 0 0 1
    outer loop
      vertex -10.0664 87.9295 15
      vertex -9.70829 88.5918 15
      vertex -9.84145 88.3787 15
    endloop
  endfacet
  facet normal 0 0 1
    outer loop
      vertex -10.0664 87.9295 15
      vertex -9.84145 88.3787 15
      vertex -9.96097 88.1577 15
    endloop
  endfacet
  facet normal 0 0 1
    outer loop
      vertex -4.82143 90.0486 15
      vertex -10.0664 87.9295 15
      vertex -9.70557 78.5423 15
    endloop
  endfacet
  facet normal 0 0 1
    outer loop
      vertex -9.70557 78.5423 15
      vertex -10.0664 87.9295 15
      vertex -13.3876 80.1052 15
    endloop
  endfacet
  facet normal 0.920505 -0.390731 0
    outer loop
      vertex -9.70557 78.5423 15
      vertex -4.82143 90.0486 0
      vertex -4.82143 90.0486 15
    endloop
  endfacet
  facet normal 0.920505 -0.390731 0
    outer loop
      vertex -4.82143 90.0486 0
      vertex -9.70557 78.5423 15
      vertex -9.70557 78.5423 0
    endloop
  endfacet
  facet normal 0 0 -1
    outer loop
      vertex -4.82143 90.0486 0
      vertex -5.29523 90.2155 0
      vertex -5.05571 90.1395 0
    endloop
  endfacet
  facet normal 0 0 -1
    outer loop
      vertex -4.82143 90.0486 0
      vertex -5.53905 90.2763 0
      vertex -5.29523 90.2155 0
    endloop
  endfacet
  facet normal 0 0 -1
    outer loop
      vertex -4.82143 90.0486 0
      vertex -5.78621 90.3216 0
      vertex -5.53905 90.2763 0
    endloop
  endfacet
  facet normal 0 0 -1
    outer loop
      vertex -4.82143 90.0486 0
      vertex -6.03573 90.3514 0
      vertex -5.78621 90.3216 0
    endloop
  endfacet
  facet normal 0 0 -1
    outer loop
      vertex -4.82143 90.0486 0
      vertex -6.28662 90.3654 0
      vertex -6.03573 90.3514 0
    endloop
  endfacet
  facet normal 0 0 -1
    outer loop
      vertex -4.82143 90.0486 0
      vertex -6.5379 90.3637 0
      vertex -6.28662 90.3654 0
    endloop
  endfacet
  facet normal 0 0 -1
    outer loop
      vertex -4.82143 90.0486 0
      vertex -6.78858 90.3461 0
      vertex -6.5379 90.3637 0
    endloop
  endfacet
  facet normal 0 0 -1
    outer loop
      vertex -4.82143 90.0486 0
      vertex -7.03765 90.3129 0
      vertex -6.78858 90.3461 0
    endloop
  endfacet
  facet normal 0 0 -1
    outer loop
      vertex -4.82143 90.0486 0
      vertex -7.28415 90.2641 0
      vertex -7.03765 90.3129 0
    endloop
  endfacet
  facet normal 0 0 -1
    outer loop
      vertex -4.82143 90.0486 0
      vertex -7.5271 90.1999 0
      vertex -7.28415 90.2641 0
    endloop
  endfacet
  facet normal 0 0 -1
    outer loop
      vertex -4.82143 90.0486 0
      vertex -7.76554 90.1206 0
      vertex -7.5271 90.1999 0
    endloop
  endfacet
  facet normal -0 0 -1
    outer loop
      vertex -4.82143 90.0486 0
      vertex -7.99853 90.0265 0
      vertex -7.76554 90.1206 0
    endloop
  endfacet
  facet normal 0 0 -1
    outer loop
      vertex -4.82143 90.0486 0
      vertex -8.22515 89.9179 0
      vertex -7.99853 90.0265 0
    endloop
  endfacet
  facet normal 0 0 -1
    outer loop
      vertex -4.82143 90.0486 0
      vertex -8.4445 89.7953 0
      vertex -8.22515 89.9179 0
    endloop
  endfacet
  facet normal 0 0 -1
    outer loop
      vertex -4.82143 90.0486 0
      vertex -8.65573 89.6592 0
      vertex -8.4445 89.7953 0
    endloop
  endfacet
  facet normal 0 0 -1
    outer loop
      vertex -4.82143 90.0486 0
      vertex -8.85798 89.51 0
      vertex -8.65573 89.6592 0
    endloop
  endfacet
  facet normal 0 0 -1
    outer loop
      vertex -4.82143 90.0486 0
      vertex -9.05048 89.3485 0
      vertex -8.85798 89.51 0
    endloop
  endfacet
  facet normal 0 0 -1
    outer loop
      vertex -4.82143 90.0486 0
      vertex -9.23246 89.1752 0
      vertex -9.05048 89.3485 0
    endloop
  endfacet
  facet normal 0 0 -1
    outer loop
      vertex -4.82143 90.0486 0
      vertex -9.40319 88.9909 0
      vertex -9.23246 89.1752 0
    endloop
  endfacet
  facet normal 0 0 -1
    outer loop
      vertex -4.82143 90.0486 0
      vertex -9.56201 88.7961 0
      vertex -9.40319 88.9909 0
    endloop
  endfacet
  facet normal 0 0 -1
    outer loop
      vertex -10.0664 87.9295 0
      vertex -4.82143 90.0486 0
      vertex -9.70557 78.5423 0
    endloop
  endfacet
  facet normal 0 0 -1
    outer loop
      vertex -4.82143 90.0486 0
      vertex -10.0664 87.9295 0
      vertex -9.56201 88.7961 0
    endloop
  endfacet
  facet normal 0 0 -1
    outer loop
      vertex -9.56201 88.7961 0
      vertex -10.0664 87.9295 0
      vertex -9.70829 88.5918 0
    endloop
  endfacet
  facet normal 0 0 -1
    outer loop
      vertex -9.70829 88.5918 0
      vertex -10.0664 87.9295 0
      vertex -9.84145 88.3787 0
    endloop
  endfacet
  facet normal 0 0 -1
    outer loop
      vertex -9.84145 88.3787 0
      vertex -10.0664 87.9295 0
      vertex -9.96097 88.1577 0
    endloop
  endfacet
  facet normal 0 -0 -1
    outer loop
      vertex -10.0664 87.9295 0
      vertex -9.70557 78.5423 0
      vertex -13.3876 80.1052 0
    endloop
  endfacet
  facet normal -0.390725 -0.920507 0
    outer loop
      vertex -13.3876 80.1052 0
      vertex -9.70557 78.5423 15
      vertex -13.3876 80.1052 15
    endloop
  endfacet
  facet normal -0.390725 -0.920507 -0
    outer loop
      vertex -9.70557 78.5423 15
      vertex -13.3876 80.1052 0
      vertex -9.70557 78.5423 0
    endloop
  endfacet
  facet normal -0.315583 0.948898 0
    outer loop
      vertex -7.5271 90.1999 0
      vertex -7.76554 90.1206 15
      vertex -7.5271 90.1999 15
    endloop
  endfacet
  facet normal -0.315583 0.948898 0
    outer loop
      vertex -7.76554 90.1206 15
      vertex -7.5271 90.1999 0
      vertex -7.76554 90.1206 0
    endloop
  endfacet
  facet normal 0.0557147 0.998447 -0
    outer loop
      vertex -6.03573 90.3514 0
      vertex -6.28662 90.3654 15
      vertex -6.03573 90.3514 15
    endloop
  endfacet
  facet normal 0.0557147 0.998447 0
    outer loop
      vertex -6.28662 90.3654 15
      vertex -6.03573 90.3514 0
      vertex -6.28662 90.3654 0
    endloop
  endfacet
  facet normal 0.241955 0.970287 -0
    outer loop
      vertex -5.29523 90.2155 0
      vertex -5.53905 90.2763 15
      vertex -5.29523 90.2155 15
    endloop
  endfacet
  facet normal 0.241955 0.970287 0
    outer loop
      vertex -5.53905 90.2763 15
      vertex -5.29523 90.2155 0
      vertex -5.53905 90.2763 0
    endloop
  endfacet
  facet normal -0.132127 0.991233 0
    outer loop
      vertex -6.78858 90.3461 0
      vertex -7.03765 90.3129 15
      vertex -6.78858 90.3461 15
    endloop
  endfacet
  facet normal -0.132127 0.991233 0
    outer loop
      vertex -7.03765 90.3129 15
      vertex -6.78858 90.3461 0
      vertex -7.03765 90.3129 0
    endloop
  endfacet
  facet normal -0.194203 0.980961 0
    outer loop
      vertex -7.03765 90.3129 0
      vertex -7.28415 90.2641 15
      vertex -7.03765 90.3129 15
    endloop
  endfacet
  facet normal -0.194203 0.980961 0
    outer loop
      vertex -7.28415 90.2641 15
      vertex -7.03765 90.3129 0
      vertex -7.28415 90.2641 0
    endloop
  endfacet
  facet normal 0.361724 0.932285 -0
    outer loop
      vertex -4.82143 90.0486 0
      vertex -5.05571 90.1395 15
      vertex -4.82143 90.0486 15
    endloop
  endfacet
  facet normal 0.361724 0.932285 0
    outer loop
      vertex -5.05571 90.1395 15
      vertex -4.82143 90.0486 0
      vertex -5.05571 90.1395 0
    endloop
  endfacet
  facet normal -0.689625 0.724166 0
    outer loop
      vertex -9.05048 89.3485 0
      vertex -9.23246 89.1752 15
      vertex -9.05048 89.3485 15
    endloop
  endfacet
  facet normal -0.689625 0.724166 0
    outer loop
      vertex -9.23246 89.1752 15
      vertex -9.05048 89.3485 0
      vertex -9.23246 89.1752 0
    endloop
  endfacet
  facet normal -0.487888 0.872906 0
    outer loop
      vertex -8.22515 89.9179 0
      vertex -8.4445 89.7953 15
      vertex -8.22515 89.9179 15
    endloop
  endfacet
  facet normal -0.487888 0.872906 0
    outer loop
      vertex -8.4445 89.7953 15
      vertex -8.22515 89.9179 0
      vertex -8.4445 89.7953 0
    endloop
  endfacet
  facet normal -0.907797 0.419409 0
    outer loop
      vertex -10.0664 87.9295 0
      vertex -9.96097 88.1577 15
      vertex -9.96097 88.1577 0
    endloop
  endfacet
  facet normal -0.907797 0.419409 0
    outer loop
      vertex -9.96097 88.1577 15
      vertex -10.0664 87.9295 0
      vertex -10.0664 87.9295 15
    endloop
  endfacet
  facet normal -0.0700366 0.997544 0
    outer loop
      vertex -6.5379 90.3637 0
      vertex -6.78858 90.3461 15
      vertex -6.5379 90.3637 15
    endloop
  endfacet
  facet normal -0.0700366 0.997544 0
    outer loop
      vertex -6.78858 90.3461 15
      vertex -6.5379 90.3637 0
      vertex -6.78858 90.3461 0
    endloop
  endfacet
  facet normal -0.00676521 0.999977 0
    outer loop
      vertex -6.28662 90.3654 0
      vertex -6.5379 90.3637 15
      vertex -6.28662 90.3654 15
    endloop
  endfacet
  facet normal -0.00676521 0.999977 0
    outer loop
      vertex -6.5379 90.3637 15
      vertex -6.28662 90.3654 0
      vertex -6.5379 90.3637 0
    endloop
  endfacet
  facet normal -0.255482 0.966814 0
    outer loop
      vertex -7.28415 90.2641 0
      vertex -7.5271 90.1999 15
      vertex -7.28415 90.2641 15
    endloop
  endfacet
  facet normal -0.255482 0.966814 0
    outer loop
      vertex -7.5271 90.1999 15
      vertex -7.28415 90.2641 0
      vertex -7.5271 90.1999 0
    endloop
  endfacet
  facet normal 0.180279 0.983615 -0
    outer loop
      vertex -5.53905 90.2763 0
      vertex -5.78621 90.3216 15
      vertex -5.53905 90.2763 15
    endloop
  endfacet
  facet normal 0.180279 0.983615 0
    outer loop
      vertex -5.78621 90.3216 15
      vertex -5.53905 90.2763 0
      vertex -5.78621 90.3216 0
    endloop
  endfacet
  facet normal 0.118587 0.992944 -0
    outer loop
      vertex -5.78621 90.3216 0
      vertex -6.03573 90.3514 15
      vertex -5.78621 90.3216 15
    endloop
  endfacet
  facet normal 0.118587 0.992944 0
    outer loop
      vertex -6.03573 90.3514 15
      vertex -5.78621 90.3216 0
      vertex -6.03573 90.3514 0
    endloop
  endfacet
  facet normal 0.302441 0.953168 -0
    outer loop
      vertex -5.05571 90.1395 0
      vertex -5.29523 90.2155 15
      vertex -5.05571 90.1395 15
    endloop
  endfacet
  facet normal 0.302441 0.953168 0
    outer loop
      vertex -5.29523 90.2155 15
      vertex -5.05571 90.1395 0
      vertex -5.29523 90.2155 0
    endloop
  endfacet
  facet normal -0.813071 0.582164 0
    outer loop
      vertex -9.70829 88.5918 0
      vertex -9.56201 88.7961 15
      vertex -9.56201 88.7961 0
    endloop
  endfacet
  facet normal -0.813071 0.582164 0
    outer loop
      vertex -9.56201 88.7961 15
      vertex -9.70829 88.5918 0
      vertex -9.70829 88.5918 15
    endloop
  endfacet
  facet normal -0.733598 0.679583 0
    outer loop
      vertex -9.40319 88.9909 0
      vertex -9.23246 89.1752 15
      vertex -9.23246 89.1752 0
    endloop
  endfacet
  facet normal -0.733598 0.679583 0
    outer loop
      vertex -9.23246 89.1752 15
      vertex -9.40319 88.9909 0
      vertex -9.40319 88.9909 15
    endloop
  endfacet
  facet normal -0.642725 0.766097 0
    outer loop
      vertex -8.85798 89.51 0
      vertex -9.05048 89.3485 15
      vertex -8.85798 89.51 15
    endloop
  endfacet
  facet normal -0.642725 0.766097 0
    outer loop
      vertex -9.05048 89.3485 15
      vertex -8.85798 89.51 0
      vertex -9.05048 89.3485 0
    endloop
  endfacet
  facet normal -0.593647 0.804726 0
    outer loop
      vertex -8.65573 89.6592 0
      vertex -8.85798 89.51 15
      vertex -8.65573 89.6592 15
    endloop
  endfacet
  facet normal -0.593647 0.804726 0
    outer loop
      vertex -8.85798 89.51 15
      vertex -8.65573 89.6592 0
      vertex -8.85798 89.51 0
    endloop
  endfacet
  facet normal -0.541628 0.840618 0
    outer loop
      vertex -8.4445 89.7953 0
      vertex -8.65573 89.6592 15
      vertex -8.4445 89.7953 15
    endloop
  endfacet
  facet normal -0.541628 0.840618 0
    outer loop
      vertex -8.65573 89.6592 15
      vertex -8.4445 89.7953 0
      vertex -8.65573 89.6592 0
    endloop
  endfacet
  facet normal -0.432157 0.901799 0
    outer loop
      vertex -7.99853 90.0265 0
      vertex -8.22515 89.9179 15
      vertex -7.99853 90.0265 15
    endloop
  endfacet
  facet normal -0.432157 0.901799 0
    outer loop
      vertex -8.22515 89.9179 15
      vertex -7.99853 90.0265 0
      vertex -8.22515 89.9179 0
    endloop
  endfacet
  facet normal -0.37449 0.927231 0
    outer loop
      vertex -7.76554 90.1206 0
      vertex -7.99853 90.0265 15
      vertex -7.76554 90.1206 15
    endloop
  endfacet
  facet normal -0.37449 0.927231 0
    outer loop
      vertex -7.99853 90.0265 15
      vertex -7.76554 90.1206 0
      vertex -7.99853 90.0265 0
    endloop
  endfacet
  facet normal -0.775052 0.631898 0
    outer loop
      vertex -9.56201 88.7961 0
      vertex -9.40319 88.9909 15
      vertex -9.40319 88.9909 0
    endloop
  endfacet
  facet normal -0.775052 0.631898 0
    outer loop
      vertex -9.40319 88.9909 15
      vertex -9.56201 88.7961 0
      vertex -9.56201 88.7961 15
    endloop
  endfacet
  facet normal -0.879606 0.475703 0
    outer loop
      vertex -9.96097 88.1577 0
      vertex -9.84145 88.3787 15
      vertex -9.84145 88.3787 0
    endloop
  endfacet
  facet normal -0.879606 0.475703 0
    outer loop
      vertex -9.84145 88.3787 15
      vertex -9.96097 88.1577 0
      vertex -9.96097 88.1577 15
    endloop
  endfacet
  facet normal -0.848047 0.52992 0
    outer loop
      vertex -9.84145 88.3787 0
      vertex -9.70829 88.5918 15
      vertex -9.70829 88.5918 0
    endloop
  endfacet
  facet normal -0.848047 0.52992 0
    outer loop
      vertex -9.70829 88.5918 15
      vertex -9.84145 88.3787 0
      vertex -9.84145 88.3787 15
    endloop
  endfacet
  facet normal 0.390725 0.920507 -0
    outer loop
      vertex -9.70557 78.5423 0
      vertex -13.3876 80.1052 15
      vertex -9.70557 78.5423 15
    endloop
  endfacet
  facet normal 0.390725 0.920507 0
    outer loop
      vertex -13.3876 80.1052 15
      vertex -9.70557 78.5423 0
      vertex -13.3876 80.1052 0
    endloop
  endfacet
  facet normal -0.393448 -0.919347 0
    outer loop
      vertex -11.396 74.9171 0
      vertex -11.1607 74.8164 15
      vertex -11.396 74.9171 15
    endloop
  endfacet
  facet normal -0.393448 -0.919347 -0
    outer loop
      vertex -11.1607 74.8164 15
      vertex -11.396 74.9171 0
      vertex -11.1607 74.8164 0
    endloop
  endfacet
  facet normal -0.921672 -0.38797 0
    outer loop
      vertex -13.3406 76.873 0
      vertex -13.4399 77.1089 15
      vertex -13.4399 77.1089 0
    endloop
  endfacet
  facet normal -0.921672 -0.38797 0
    outer loop
      vertex -13.4399 77.1089 15
      vertex -13.3406 76.873 0
      vertex -13.3406 76.873 15
    endloop
  endfacet
  facet normal -0.33376 -0.942658 0
    outer loop
      vertex -11.1607 74.8164 0
      vertex -10.9195 74.731 15
      vertex -11.1607 74.8164 15
    endloop
  endfacet
  facet normal -0.33376 -0.942658 -0
    outer loop
      vertex -10.9195 74.731 15
      vertex -11.1607 74.8164 0
      vertex -10.9195 74.731 0
    endloop
  endfacet
  facet normal -0.98436 0.176169 0
    outer loop
      vertex -13.6633 79.122 0
      vertex -13.6182 79.374 15
      vertex -13.6182 79.374 0
    endloop
  endfacet
  facet normal -0.98436 0.176169 0
    outer loop
      vertex -13.6182 79.374 15
      vertex -13.6633 79.122 0
      vertex -13.6633 79.122 15
    endloop
  endfacet
  facet normal -0.561712 -0.827333 0
    outer loop
      vertex -12.0567 75.3063 0
      vertex -11.8449 75.1625 15
      vertex -12.0567 75.3063 15
    endloop
  endfacet
  facet normal -0.561712 -0.827333 -0
    outer loop
      vertex -11.8449 75.1625 15
      vertex -12.0567 75.3063 0
      vertex -11.8449 75.1625 0
    endloop
  endfacet
  facet normal -0.662616 -0.748959 0
    outer loop
      vertex -12.4505 75.6328 0
      vertex -12.2588 75.4632 15
      vertex -12.4505 75.6328 15
    endloop
  endfacet
  facet normal -0.662616 -0.748959 -0
    outer loop
      vertex -12.2588 75.4632 15
      vertex -12.4505 75.6328 0
      vertex -12.2588 75.4632 0
    endloop
  endfacet
  facet normal -0.507584 -0.861603 0
    outer loop
      vertex -11.8449 75.1625 0
      vertex -11.6244 75.0326 15
      vertex -11.8449 75.1625 15
    endloop
  endfacet
  facet normal -0.507584 -0.861603 -0
    outer loop
      vertex -11.6244 75.0326 15
      vertex -11.8449 75.1625 0
      vertex -11.6244 75.0326 0
    endloop
  endfacet
  facet normal -0.894973 -0.446119 0
    outer loop
      vertex -13.2264 76.6439 0
      vertex -13.3406 76.873 15
      vertex -13.3406 76.873 0
    endloop
  endfacet
  facet normal -0.894973 -0.446119 0
    outer loop
      vertex -13.3406 76.873 15
      vertex -13.2264 76.6439 0
      vertex -13.2264 76.6439 15
    endloop
  endfacet
  facet normal -0.273121 -0.96198 0
    outer loop
      vertex -10.9195 74.731 0
      vertex -10.6733 74.6611 15
      vertex -10.9195 74.731 15
    endloop
  endfacet
  facet normal -0.273121 -0.96198 -0
    outer loop
      vertex -10.6733 74.6611 15
      vertex -10.9195 74.731 0
      vertex -10.6733 74.6611 0
    endloop
  endfacet
  facet normal -0.953677 0.300832 0
    outer loop
      vertex -13.557 79.6225 0
      vertex -13.48 79.8666 15
      vertex -13.48 79.8666 0
    endloop
  endfacet
  facet normal -0.953677 0.300832 0
    outer loop
      vertex -13.48 79.8666 15
      vertex -13.557 79.6225 0
      vertex -13.557 79.6225 15
    endloop
  endfacet
  facet normal -0.932517 0.361126 0
    outer loop
      vertex -13.48 79.8666 0
      vertex -13.3876 80.1052 15
      vertex -13.3876 80.1052 0
    endloop
  endfacet
  facet normal -0.932517 0.361126 0
    outer loop
      vertex -13.3876 80.1052 15
      vertex -13.48 79.8666 0
      vertex -13.48 79.8666 15
    endloop
  endfacet
  facet normal -0.970987 0.239132 0
    outer loop
      vertex -13.6182 79.374 0
      vertex -13.557 79.6225 15
      vertex -13.557 79.6225 0
    endloop
  endfacet
  facet normal -0.970987 0.239132 0
    outer loop
      vertex -13.557 79.6225 15
      vertex -13.6182 79.374 0
      vertex -13.6182 79.374 15
    endloop
  endfacet
  facet normal -0.993555 0.113348 0
    outer loop
      vertex -13.6923 78.8678 0
      vertex -13.6633 79.122 15
      vertex -13.6633 79.122 0
    endloop
  endfacet
  facet normal -0.993555 0.113348 0
    outer loop
      vertex -13.6633 79.122 15
      vertex -13.6923 78.8678 0
      vertex -13.6923 78.8678 15
    endloop
  endfacet
  facet normal -0.978736 -0.205124 0
    outer loop
      vertex -13.5923 77.5972 0
      vertex -13.6448 77.8477 15
      vertex -13.6448 77.8477 0
    endloop
  endfacet
  facet normal -0.978736 -0.205124 0
    outer loop
      vertex -13.6448 77.8477 15
      vertex -13.5923 77.5972 0
      vertex -13.5923 77.5972 15
    endloop
  endfacet
  facet normal -0.944581 -0.328278 0
    outer loop
      vertex -13.4399 77.1089 0
      vertex -13.5239 77.3506 15
      vertex -13.5239 77.3506 0
    endloop
  endfacet
  facet normal -0.944581 -0.328278 0
    outer loop
      vertex -13.5239 77.3506 15
      vertex -13.4399 77.1089 0
      vertex -13.4399 77.1089 15
    endloop
  endfacet
  facet normal -0.98984 -0.142187 0
    outer loop
      vertex -13.6448 77.8477 0
      vertex -13.6812 78.1011 15
      vertex -13.6812 78.1011 0
    endloop
  endfacet
  facet normal -0.98984 -0.142187 0
    outer loop
      vertex -13.6812 78.1011 15
      vertex -13.6448 77.8477 0
      vertex -13.6448 77.8477 15
    endloop
  endfacet
  facet normal -0.99989 -0.0148479 0
    outer loop
      vertex -13.7012 78.3562 0
      vertex -13.705 78.6121 15
      vertex -13.705 78.6121 0
    endloop
  endfacet
  facet normal -0.99989 -0.0148479 0
    outer loop
      vertex -13.705 78.6121 15
      vertex -13.7012 78.3562 0
      vertex -13.7012 78.3562 15
    endloop
  endfacet
  facet normal -0.613237 -0.789899 0
    outer loop
      vertex -12.2588 75.4632 0
      vertex -12.0567 75.3063 15
      vertex -12.2588 75.4632 15
    endloop
  endfacet
  facet normal -0.613237 -0.789899 -0
    outer loop
      vertex -12.0567 75.3063 15
      vertex -12.2588 75.4632 0
      vertex -12.0567 75.3063 0
    endloop
  endfacet
  facet normal -0.451272 -0.892386 0
    outer loop
      vertex -11.6244 75.0326 0
      vertex -11.396 74.9171 15
      vertex -11.6244 75.0326 15
    endloop
  endfacet
  facet normal -0.451272 -0.892386 -0
    outer loop
      vertex -11.396 74.9171 15
      vertex -11.6244 75.0326 0
      vertex -11.396 74.9171 0
    endloop
  endfacet
  facet normal -0.709057 -0.705151 0
    outer loop
      vertex -12.4505 75.6328 0
      vertex -12.631 75.8143 15
      vertex -12.631 75.8143 0
    endloop
  endfacet
  facet normal -0.709057 -0.705151 0
    outer loop
      vertex -12.631 75.8143 15
      vertex -12.4505 75.6328 0
      vertex -12.4505 75.6328 15
    endloop
  endfacet
  facet normal -0.793437 -0.608653 0
    outer loop
      vertex -12.7995 76.007 0
      vertex -12.9553 76.2101 15
      vertex -12.9553 76.2101 0
    endloop
  endfacet
  facet normal -0.793437 -0.608653 0
    outer loop
      vertex -12.9553 76.2101 15
      vertex -12.7995 76.007 0
      vertex -12.7995 76.007 15
    endloop
  endfacet
  facet normal -0.752794 -0.658256 0
    outer loop
      vertex -12.631 75.8143 0
      vertex -12.7995 76.007 15
      vertex -12.7995 76.007 0
    endloop
  endfacet
  facet normal -0.752794 -0.658256 0
    outer loop
      vertex -12.7995 76.007 15
      vertex -12.631 75.8143 0
      vertex -12.631 75.8143 15
    endloop
  endfacet
  facet normal -0.864614 -0.502437 0
    outer loop
      vertex -13.0978 76.4226 0
      vertex -13.2264 76.6439 15
      vertex -13.2264 76.6439 0
    endloop
  endfacet
  facet normal -0.864614 -0.502437 0
    outer loop
      vertex -13.2264 76.6439 15
      vertex -13.0978 76.4226 0
      vertex -13.0978 76.4226 15
    endloop
  endfacet
  facet normal -0.830544 -0.556953 0
    outer loop
      vertex -12.9553 76.2101 0
      vertex -13.0978 76.4226 15
      vertex -13.0978 76.4226 0
    endloop
  endfacet
  facet normal -0.830544 -0.556953 0
    outer loop
      vertex -13.0978 76.4226 15
      vertex -12.9553 76.2101 0
      vertex -12.9553 76.2101 15
    endloop
  endfacet
  facet normal -0.998769 0.0496064 0
    outer loop
      vertex -13.705 78.6121 0
      vertex -13.6923 78.8678 15
      vertex -13.6923 78.8678 0
    endloop
  endfacet
  facet normal -0.998769 0.0496064 0
    outer loop
      vertex -13.6923 78.8678 15
      vertex -13.705 78.6121 0
      vertex -13.705 78.6121 15
    endloop
  endfacet
  facet normal -0.963619 -0.267281 0
    outer loop
      vertex -13.5239 77.3506 0
      vertex -13.5923 77.5972 15
      vertex -13.5923 77.5972 0
    endloop
  endfacet
  facet normal -0.963619 -0.267281 0
    outer loop
      vertex -13.5923 77.5972 15
      vertex -13.5239 77.3506 0
      vertex -13.5239 77.3506 15
    endloop
  endfacet
  facet normal -0.996941 -0.0781608 0
    outer loop
      vertex -13.6812 78.1011 0
      vertex -13.7012 78.3562 15
      vertex -13.7012 78.3562 0
    endloop
  endfacet
  facet normal -0.996941 -0.0781608 0
    outer loop
      vertex -13.7012 78.3562 15
      vertex -13.6812 78.1011 0
      vertex -13.6812 78.1011 15
    endloop
  endfacet
  facet normal 0 -1 0
    outer loop
      vertex 0.967687 75.8812 0
      vertex 0.967688 75.8812 15
      vertex 0.967687 75.8812 15
    endloop
  endfacet
  facet normal 0 -1 -0
    outer loop
      vertex 0.967688 75.8812 15
      vertex 0.967687 75.8812 0
      vertex 0.967688 75.8812 0
    endloop
  endfacet
  facet normal -0.241917 -0.970297 0
    outer loop
      vertex -10.6733 74.6611 0
      vertex 0 72 15
      vertex -10.6733 74.6611 15
    endloop
  endfacet
  facet normal -0.241917 -0.970297 -0
    outer loop
      vertex 0 72 15
      vertex -10.6733 74.6611 0
      vertex 0 72 0
    endloop
  endfacet
  facet normal 0.241918 0.970297 -0
    outer loop
      vertex 0.967688 75.8812 0
      vertex -9.70557 78.5423 15
      vertex 0.967688 75.8812 15
    endloop
  endfacet
  facet normal 0.241918 0.970297 0
    outer loop
      vertex -9.70557 78.5423 15
      vertex 0.967688 75.8812 0
      vertex -9.70557 78.5423 0
    endloop
  endfacet
  facet normal 0.788076 0.615578 0
    outer loop
      vertex 3.22823 74.3619 15
      vertex 3.07271 74.561 0
      vertex 3.07271 74.561 15
    endloop
  endfacet
  facet normal 0.788076 0.615578 0
    outer loop
      vertex 3.07271 74.561 0
      vertex 3.22823 74.3619 15
      vertex 3.22823 74.3619 0
    endloop
  endfacet
  facet normal 0.959882 0.280404 0
    outer loop
      vertex 3.87301 72.9999 15
      vertex 3.80217 73.2424 0
      vertex 3.80217 73.2424 15
    endloop
  endfacet
  facet normal 0.959882 0.280404 0
    outer loop
      vertex 3.80217 73.2424 0
      vertex 3.87301 72.9999 15
      vertex 3.87301 72.9999 0
    endloop
  endfacet
  facet normal 0.995515 0.0946036 0
    outer loop
      vertex 3.99202 72.2525 15
      vertex 3.96812 72.504 0
      vertex 3.96812 72.504 15
    endloop
  endfacet
  facet normal 0.995515 0.0946036 0
    outer loop
      vertex 3.96812 72.504 0
      vertex 3.99202 72.2525 15
      vertex 3.99202 72.2525 0
    endloop
  endfacet
  facet normal 0.889885 0.456185 0
    outer loop
      vertex 3.61533 73.7115 15
      vertex 3.50009 73.9363 0
      vertex 3.50009 73.9363 15
    endloop
  endfacet
  facet normal 0.889885 0.456185 0
    outer loop
      vertex 3.50009 73.9363 0
      vertex 3.61533 73.7115 15
      vertex 3.61533 73.7115 0
    endloop
  endfacet
  facet normal 0.987554 0.15728 0
    outer loop
      vertex 3.96812 72.504 15
      vertex 3.9284 72.7534 0
      vertex 3.9284 72.7534 15
    endloop
  endfacet
  facet normal 0.987554 0.15728 0
    outer loop
      vertex 3.9284 72.7534 0
      vertex 3.96812 72.504 15
      vertex 3.96812 72.504 0
    endloop
  endfacet
  facet normal 0.999501 0.0315882 0
    outer loop
      vertex 4 72 15
      vertex 3.99202 72.2525 0
      vertex 3.99202 72.2525 15
    endloop
  endfacet
  facet normal 0.999501 0.0315882 0
    outer loop
      vertex 3.99202 72.2525 0
      vertex 4 72 15
      vertex 4 72 0
    endloop
  endfacet
  facet normal 0.558057 0.829803 -0
    outer loop
      vertex 2.33497 75.2477 0
      vertex 2.12531 75.3887 15
      vertex 2.33497 75.2477 15
    endloop
  endfacet
  facet normal 0.558057 0.829803 0
    outer loop
      vertex 2.12531 75.3887 15
      vertex 2.33497 75.2477 0
      vertex 2.12531 75.3887 0
    endloop
  endfacet
  facet normal 0.272354 0.962197 -0
    outer loop
      vertex 1.21075 75.8124 0
      vertex 0.967687 75.8812 15
      vertex 1.21075 75.8124 15
    endloop
  endfacet
  facet normal 0.272354 0.962197 0
    outer loop
      vertex 0.967687 75.8812 15
      vertex 1.21075 75.8124 0
      vertex 0.967687 75.8812 0
    endloop
  endfacet
  facet normal 0.916875 0.399173 0
    outer loop
      vertex 3.71616 73.4799 15
      vertex 3.61533 73.7115 0
      vertex 3.61533 73.7115 15
    endloop
  endfacet
  facet normal 0.916875 0.399173 0
    outer loop
      vertex 3.61533 73.7115 0
      vertex 3.71616 73.4799 15
      vertex 3.71616 73.4799 0
    endloop
  endfacet
  facet normal 0.940242 0.340506 0
    outer loop
      vertex 3.80217 73.2424 15
      vertex 3.71616 73.4799 0
      vertex 3.71616 73.4799 15
    endloop
  endfacet
  facet normal 0.940242 0.340506 0
    outer loop
      vertex 3.71616 73.4799 0
      vertex 3.80217 73.2424 15
      vertex 3.80217 73.2424 0
    endloop
  endfacet
  facet normal 0.859321 0.511437 0
    outer loop
      vertex 3.50009 73.9363 15
      vertex 3.37088 74.1534 0
      vertex 3.37088 74.1534 15
    endloop
  endfacet
  facet normal 0.859321 0.511437 0
    outer loop
      vertex 3.37088 74.1534 0
      vertex 3.50009 73.9363 15
      vertex 3.50009 73.9363 0
    endloop
  endfacet
  facet normal 0.825322 0.564663 0
    outer loop
      vertex 3.37088 74.1534 15
      vertex 3.22823 74.3619 0
      vertex 3.22823 74.3619 15
    endloop
  endfacet
  facet normal 0.825322 0.564663 0
    outer loop
      vertex 3.22823 74.3619 0
      vertex 3.37088 74.1534 15
      vertex 3.37088 74.1534 0
    endloop
  endfacet
  facet normal 0.975671 0.219239 0
    outer loop
      vertex 3.9284 72.7534 15
      vertex 3.87301 72.9999 0
      vertex 3.87301 72.9999 15
    endloop
  endfacet
  facet normal 0.975671 0.219239 0
    outer loop
      vertex 3.87301 72.9999 0
      vertex 3.9284 72.7534 15
      vertex 3.9284 72.7534 0
    endloop
  endfacet
  facet normal 0.704191 0.71001 -0
    outer loop
      vertex 2.90493 74.7498 0
      vertex 2.72556 74.9277 15
      vertex 2.90493 74.7498 15
    endloop
  endfacet
  facet normal 0.704191 0.71001 0
    outer loop
      vertex 2.72556 74.9277 15
      vertex 2.90493 74.7498 0
      vertex 2.72556 74.9277 0
    endloop
  endfacet
  facet normal 0.747492 0.66427 0
    outer loop
      vertex 3.07271 74.561 15
      vertex 2.90493 74.7498 0
      vertex 2.90493 74.7498 15
    endloop
  endfacet
  facet normal 0.747492 0.66427 0
    outer loop
      vertex 2.90493 74.7498 0
      vertex 3.07271 74.561 15
      vertex 3.07271 74.561 0
    endloop
  endfacet
  facet normal 0.391505 0.920176 -0
    outer loop
      vertex 1.68143 75.6294 0
      vertex 1.44898 75.7283 15
      vertex 1.68143 75.6294 15
    endloop
  endfacet
  facet normal 0.391505 0.920176 0
    outer loop
      vertex 1.44898 75.7283 15
      vertex 1.68143 75.6294 0
      vertex 1.44898 75.7283 0
    endloop
  endfacet
  facet normal 0.332886 0.942967 -0
    outer loop
      vertex 1.44898 75.7283 0
      vertex 1.21075 75.8124 15
      vertex 1.44898 75.7283 15
    endloop
  endfacet
  facet normal 0.332886 0.942967 0
    outer loop
      vertex 1.21075 75.8124 15
      vertex 1.44898 75.7283 0
      vertex 1.21075 75.8124 0
    endloop
  endfacet
  facet normal 0.608926 0.793227 -0
    outer loop
      vertex 2.53532 75.0939 0
      vertex 2.33497 75.2477 15
      vertex 2.53532 75.0939 15
    endloop
  endfacet
  facet normal 0.608926 0.793227 0
    outer loop
      vertex 2.33497 75.2477 15
      vertex 2.53532 75.0939 0
      vertex 2.33497 75.2477 0
    endloop
  endfacet
  facet normal 0.657921 0.753087 -0
    outer loop
      vertex 2.72556 74.9277 0
      vertex 2.53532 75.0939 15
      vertex 2.72556 74.9277 15
    endloop
  endfacet
  facet normal 0.657921 0.753087 0
    outer loop
      vertex 2.53532 75.0939 15
      vertex 2.72556 74.9277 0
      vertex 2.53532 75.0939 0
    endloop
  endfacet
  facet normal 0.448575 0.893745 -0
    outer loop
      vertex 1.90717 75.5161 0
      vertex 1.68143 75.6294 15
      vertex 1.90717 75.5161 15
    endloop
  endfacet
  facet normal 0.448575 0.893745 0
    outer loop
      vertex 1.68143 75.6294 15
      vertex 1.90717 75.5161 0
      vertex 1.68143 75.6294 0
    endloop
  endfacet
  facet normal 0.504319 0.863517 -0
    outer loop
      vertex 2.12531 75.3887 0
      vertex 1.90717 75.5161 15
      vertex 2.12531 75.3887 15
    endloop
  endfacet
  facet normal 0.504319 0.863517 0
    outer loop
      vertex 1.90717 75.5161 15
      vertex 2.12531 75.3887 0
      vertex 1.90717 75.5161 0
    endloop
  endfacet
  facet normal 1 -0 0
    outer loop
      vertex 14 49.1421 15
      vertex 14 60 0
      vertex 14 60 15
    endloop
  endfacet
  facet normal 1 0 0
    outer loop
      vertex 14 60 0
      vertex 14 49.1421 15
      vertex 14 49.1421 0
    endloop
  endfacet
  facet normal 0 1 -0
    outer loop
      vertex 14 60 0
      vertex 13 60 15
      vertex 14 60 15
    endloop
  endfacet
  facet normal 0 1 0
    outer loop
      vertex 13 60 15
      vertex 14 60 0
      vertex 13 60 0
    endloop
  endfacet
  facet normal 0 -1 0
    outer loop
      vertex 5 45 0
      vertex 9.85786 45 15
      vertex 5 45 15
    endloop
  endfacet
  facet normal 0 -1 -0
    outer loop
      vertex 9.85786 45 15
      vertex 5 45 0
      vertex 9.85786 45 0
    endloop
  endfacet
  facet normal -0.707107 0.707107 0
    outer loop
      vertex 4 51 0
      vertex 13 60 15
      vertex 13 60 0
    endloop
  endfacet
  facet normal -0.707107 0.707107 0
    outer loop
      vertex 13 60 15
      vertex 4 51 0
      vertex 4 51 15
    endloop
  endfacet
  facet normal 0.707103 -0.70711 0
    outer loop
      vertex 9.85786 45 15
      vertex 14 49.1421 0
      vertex 14 49.1421 15
    endloop
  endfacet
  facet normal 0.707103 -0.70711 0
    outer loop
      vertex 14 49.1421 0
      vertex 9.85786 45 15
      vertex 9.85786 45 0
    endloop
  endfacet
  facet normal 0.0525438 -0.998619 0
    outer loop
      vertex 4.89547 44.9945 0
      vertex 5 45 15
      vertex 4.89547 44.9945 15
    endloop
  endfacet
  facet normal 0.0525438 -0.998619 0
    outer loop
      vertex 5 45 15
      vertex 4.89547 44.9945 0
      vertex 5 45 0
    endloop
  endfacet
  facet normal 0.998628 -0.0523682 0
    outer loop
      vertex 4 44 15
      vertex 4.00548 44.1045 0
      vertex 4.00548 44.1045 15
    endloop
  endfacet
  facet normal 0.998628 -0.0523682 0
    outer loop
      vertex 4.00548 44.1045 0
      vertex 4 44 15
      vertex 4 44 0
    endloop
  endfacet
  facet normal 0.707059 -0.707155 0
    outer loop
      vertex 4.25686 44.6691 15
      vertex 4.33087 44.7431 0
      vertex 4.33087 44.7431 15
    endloop
  endfacet
  facet normal 0.707059 -0.707155 0
    outer loop
      vertex 4.33087 44.7431 0
      vertex 4.25686 44.6691 15
      vertex 4.25686 44.6691 0
    endloop
  endfacet
  facet normal 0.453851 -0.891077 0
    outer loop
      vertex 4.5 44.866 0
      vertex 4.59326 44.9135 15
      vertex 4.5 44.866 15
    endloop
  endfacet
  facet normal 0.453851 -0.891077 0
    outer loop
      vertex 4.59326 44.9135 15
      vertex 4.5 44.866 0
      vertex 4.59326 44.9135 0
    endloop
  endfacet
  facet normal 0.933528 -0.358505 0
    outer loop
      vertex 4.04894 44.309 15
      vertex 4.08646 44.4067 0
      vertex 4.08646 44.4067 15
    endloop
  endfacet
  facet normal 0.933528 -0.358505 0
    outer loop
      vertex 4.08646 44.4067 0
      vertex 4.04894 44.309 15
      vertex 4.04894 44.309 0
    endloop
  endfacet
  facet normal 0.965925 -0.258822 0
    outer loop
      vertex 4.02185 44.2079 15
      vertex 4.04894 44.309 0
      vertex 4.04894 44.309 15
    endloop
  endfacet
  facet normal 0.965925 -0.258822 0
    outer loop
      vertex 4.04894 44.309 0
      vertex 4.02185 44.2079 15
      vertex 4.02185 44.2079 0
    endloop
  endfacet
  facet normal 0.257996 -0.966146 0
    outer loop
      vertex 4.69098 44.9511 0
      vertex 4.79209 44.9781 15
      vertex 4.69098 44.9511 15
    endloop
  endfacet
  facet normal 0.257996 -0.966146 0
    outer loop
      vertex 4.79209 44.9781 15
      vertex 4.69098 44.9511 0
      vertex 4.79209 44.9781 0
    endloop
  endfacet
  facet normal 0.156679 -0.98765 0
    outer loop
      vertex 4.79209 44.9781 0
      vertex 4.89547 44.9945 15
      vertex 4.79209 44.9781 15
    endloop
  endfacet
  facet normal 0.156679 -0.98765 0
    outer loop
      vertex 4.89547 44.9945 15
      vertex 4.79209 44.9781 0
      vertex 4.89547 44.9945 0
    endloop
  endfacet
  facet normal 0.359107 -0.933296 0
    outer loop
      vertex 4.59326 44.9135 0
      vertex 4.69098 44.9511 15
      vertex 4.59326 44.9135 15
    endloop
  endfacet
  facet normal 0.359107 -0.933296 0
    outer loop
      vertex 4.69098 44.9511 15
      vertex 4.59326 44.9135 0
      vertex 4.69098 44.9511 0
    endloop
  endfacet
  facet normal 0.629459 -0.777034 0
    outer loop
      vertex 4.33087 44.7431 0
      vertex 4.41222 44.809 15
      vertex 4.33087 44.7431 15
    endloop
  endfacet
  facet normal 0.629459 -0.777034 0
    outer loop
      vertex 4.41222 44.809 15
      vertex 4.33087 44.7431 0
      vertex 4.41222 44.809 0
    endloop
  endfacet
  facet normal 0.544605 -0.838692 0
    outer loop
      vertex 4.41222 44.809 0
      vertex 4.5 44.866 15
      vertex 4.41222 44.809 15
    endloop
  endfacet
  facet normal 0.544605 -0.838692 0
    outer loop
      vertex 4.5 44.866 15
      vertex 4.41222 44.809 0
      vertex 4.5 44.866 0
    endloop
  endfacet
  facet normal 0.987699 -0.15637 0
    outer loop
      vertex 4.00548 44.1045 15
      vertex 4.02185 44.2079 0
      vertex 4.02185 44.2079 15
    endloop
  endfacet
  facet normal 0.987699 -0.15637 0
    outer loop
      vertex 4.02185 44.2079 0
      vertex 4.00548 44.1045 15
      vertex 4.00548 44.1045 0
    endloop
  endfacet
  facet normal 0.838749 -0.544518 0
    outer loop
      vertex 4.13398 44.5 15
      vertex 4.19098 44.5878 0
      vertex 4.19098 44.5878 15
    endloop
  endfacet
  facet normal 0.838749 -0.544518 0
    outer loop
      vertex 4.19098 44.5878 0
      vertex 4.13398 44.5 15
      vertex 4.13398 44.5 0
    endloop
  endfacet
  facet normal 0.776938 -0.629578 0
    outer loop
      vertex 4.19098 44.5878 15
      vertex 4.25686 44.6691 0
      vertex 4.25686 44.6691 15
    endloop
  endfacet
  facet normal 0.776938 -0.629578 0
    outer loop
      vertex 4.25686 44.6691 0
      vertex 4.19098 44.5878 15
      vertex 4.19098 44.5878 0
    endloop
  endfacet
  facet normal 0.891079 -0.453849 0
    outer loop
      vertex 4.08646 44.4067 15
      vertex 4.13398 44.5 0
      vertex 4.13398 44.5 15
    endloop
  endfacet
  facet normal 0.891079 -0.453849 0
    outer loop
      vertex 4.13398 44.5 0
      vertex 4.08646 44.4067 15
      vertex 4.08646 44.4067 0
    endloop
  endfacet
endsolid OpenSCAD_Model
